<svg width="225" height="181" viewBox="0 0 225 181" fill="none" xmlns="http://www.w3.org/2000/svg">
<g filter="url(#filter0_d)">
<path d="M197.753 133.299L46.7383 109.452L87.0438 27.8592L197.753 133.299Z" stroke="#EF1571" stroke-width="2" stroke-linecap="round" stroke-linejoin="round"/>
</g>
<g filter="url(#filter1_d)">
<path d="M122.874 89.7697C122.968 89.7163 123.068 89.703 123.174 89.7297C123.281 89.7563 123.361 89.8163 123.414 89.9097C123.468 89.9897 123.481 90.083 123.454 90.1897L119.394 106.31L119.374 106.33C119.348 106.41 119.308 106.476 119.254 106.53C119.254 106.53 119.248 106.53 119.234 106.53C119.194 106.57 119.161 106.59 119.134 106.59C119.094 106.603 119.054 106.61 119.014 106.61C118.974 106.61 118.941 106.603 118.914 106.59C118.874 106.59 118.834 106.576 118.794 106.55C118.794 106.536 118.788 106.53 118.774 106.53C118.721 106.49 118.681 106.436 118.654 106.37C118.654 106.356 118.648 106.35 118.634 106.35L113.794 91.3297L108.914 106.23C108.914 106.243 108.914 106.25 108.914 106.25C108.901 106.436 108.801 106.55 108.614 106.59C108.588 106.603 108.554 106.61 108.514 106.61C108.314 106.61 108.194 106.51 108.154 106.31L104.074 90.1897C104.048 90.083 104.061 89.9897 104.114 89.9097C104.181 89.8163 104.261 89.7563 104.354 89.7297C104.408 89.7163 104.461 89.7097 104.514 89.7097C104.528 89.7097 104.541 89.7097 104.554 89.7097H105.834C105.848 89.7097 105.861 89.7163 105.874 89.7297C105.888 89.7297 105.894 89.7297 105.894 89.7297C106.001 89.703 106.094 89.7163 106.174 89.7697C106.268 89.823 106.328 89.903 106.354 90.0097L107.794 95.7497C107.821 95.8563 107.808 95.9563 107.754 96.0497C107.701 96.1297 107.621 96.183 107.514 96.2097C107.488 96.223 107.454 96.2297 107.414 96.2297C107.214 96.2297 107.088 96.1297 107.034 95.9297L105.674 90.4897H104.954L108.574 104.81L113.434 89.9697V89.9497V89.9297C113.448 89.9163 113.461 89.8963 113.474 89.8697C113.488 89.843 113.508 89.823 113.534 89.8097C113.534 89.8097 113.548 89.803 113.574 89.7897C113.601 89.763 113.628 89.743 113.654 89.7297C113.668 89.7163 113.674 89.7097 113.674 89.7097C113.674 89.7097 113.681 89.7097 113.694 89.7097C113.708 89.7097 113.714 89.7097 113.714 89.7097C113.754 89.7097 113.781 89.7097 113.794 89.7097C113.821 89.7097 113.848 89.7097 113.874 89.7097C113.874 89.7097 113.881 89.7097 113.894 89.7097C113.908 89.7097 113.914 89.7097 113.914 89.7097C113.914 89.7097 113.921 89.7163 113.934 89.7297C113.961 89.743 113.988 89.7563 114.014 89.7697C114.041 89.7963 114.061 89.8097 114.074 89.8097C114.088 89.823 114.101 89.843 114.114 89.8697C114.128 89.8963 114.141 89.923 114.154 89.9497C114.154 89.963 114.161 89.9697 114.174 89.9697L118.974 104.83L122.714 90.0097C122.728 89.903 122.781 89.823 122.874 89.7697ZM127.391 106.05C127.391 106.156 127.351 106.25 127.271 106.33C127.205 106.396 127.118 106.43 127.011 106.43H125.731C125.705 106.43 125.671 106.423 125.631 106.41C125.578 106.423 125.538 106.43 125.511 106.43C125.405 106.43 125.311 106.396 125.231 106.33C125.165 106.25 125.131 106.156 125.131 106.05V90.0697C125.131 89.963 125.165 89.8697 125.231 89.7897C125.311 89.7097 125.405 89.6697 125.511 89.6697C125.618 89.6697 125.705 89.7097 125.771 89.7897C125.851 89.8697 125.891 89.963 125.891 90.0697V105.65H126.611V91.5497C126.611 91.443 126.651 91.3563 126.731 91.2897C126.811 91.2097 126.905 91.1697 127.011 91.1697C127.118 91.1697 127.205 91.2097 127.271 91.2897C127.351 91.3563 127.391 91.443 127.391 91.5497V106.05ZM142.618 105.85C142.725 105.85 142.812 105.89 142.878 105.97C142.958 106.05 142.998 106.143 142.998 106.25C142.998 106.356 142.958 106.45 142.878 106.53C142.812 106.596 142.725 106.63 142.618 106.63H131.318C131.212 106.63 131.118 106.596 131.038 106.53C130.972 106.45 130.938 106.356 130.938 106.25C130.938 106.143 130.972 106.05 131.038 105.97C131.118 105.89 131.212 105.85 131.318 105.85H142.618ZM142.958 90.1697C142.945 90.2363 142.925 90.2897 142.898 90.3297L130.518 106.43C130.452 106.536 130.352 106.59 130.218 106.59C130.138 106.59 130.058 106.563 129.978 106.51C129.898 106.443 129.852 106.356 129.838 106.25C129.825 106.143 129.852 106.05 129.918 105.97L141.838 90.4497H130.998V91.4497H135.758C135.865 91.4497 135.958 91.4897 136.038 91.5697C136.118 91.6363 136.158 91.723 136.158 91.8297C136.158 91.9363 136.118 92.0297 136.038 92.1097C135.958 92.1897 135.865 92.2297 135.758 92.2297H130.758C130.758 92.2297 130.732 92.223 130.678 92.2097C130.665 92.2097 130.658 92.2097 130.658 92.2097C130.632 92.223 130.612 92.2297 130.598 92.2297C130.492 92.2297 130.398 92.1897 130.318 92.1097C130.252 92.0297 130.218 91.9363 130.218 91.8297V90.0497C130.218 89.943 130.252 89.8563 130.318 89.7897C130.398 89.7097 130.492 89.6697 130.598 89.6697C130.598 89.6697 130.625 89.6763 130.678 89.6897C130.678 89.6897 130.685 89.6897 130.698 89.6897C130.725 89.6763 130.745 89.6697 130.758 89.6697H142.598C142.705 89.6697 142.792 89.7097 142.858 89.7897C142.938 89.8563 142.978 89.943 142.978 90.0497C142.978 90.0763 142.972 90.1163 142.958 90.1697ZM157.493 106.21C157.533 106.316 157.533 106.423 157.493 106.53C157.453 106.623 157.38 106.683 157.273 106.71C157.233 106.736 157.186 106.75 157.133 106.75C156.96 106.75 156.84 106.663 156.773 106.49L150.873 91.1497L145.053 106.49C145 106.663 144.88 106.75 144.693 106.75C144.653 106.75 144.613 106.736 144.573 106.71C144.466 106.683 144.386 106.623 144.333 106.53C144.293 106.423 144.293 106.323 144.333 106.23L150.513 89.9297C150.513 89.9297 150.513 89.923 150.513 89.9097C150.526 89.8963 150.546 89.8763 150.573 89.8497C150.573 89.8497 150.573 89.843 150.573 89.8297C150.586 89.803 150.593 89.7897 150.593 89.7897C150.606 89.7897 150.62 89.783 150.633 89.7697C150.646 89.7563 150.653 89.7497 150.653 89.7497C150.693 89.723 150.72 89.7097 150.733 89.7097C150.746 89.6963 150.76 89.6897 150.773 89.6897C150.786 89.6897 150.793 89.6897 150.793 89.6897C150.833 89.6763 150.86 89.6697 150.873 89.6697C150.886 89.6697 150.913 89.6763 150.953 89.6897C150.953 89.6897 150.96 89.6897 150.973 89.6897C151 89.6897 151.013 89.6897 151.013 89.6897V89.7097H151.033C151.046 89.7097 151.066 89.723 151.093 89.7497C151.133 89.7763 151.153 89.7897 151.153 89.7897C151.153 89.7897 151.166 89.8097 151.193 89.8497C151.22 89.8763 151.233 89.8963 151.233 89.9097C151.233 89.923 151.233 89.9297 151.233 89.9297L157.493 106.21ZM153.433 103.31L154.653 106.21C154.693 106.303 154.693 106.403 154.653 106.51C154.613 106.603 154.546 106.67 154.453 106.71C154.4 106.736 154.346 106.75 154.293 106.75C154.12 106.75 154 106.67 153.933 106.51L152.813 103.85H147.793C147.686 103.85 147.593 103.81 147.513 103.73C147.433 103.65 147.393 103.556 147.393 103.45C147.393 103.343 147.433 103.256 147.513 103.19C147.593 103.11 147.686 103.07 147.793 103.07H153.073C153.126 103.07 153.173 103.076 153.213 103.09C153.24 103.103 153.273 103.123 153.313 103.15C153.313 103.163 153.313 103.17 153.313 103.17C153.326 103.17 153.333 103.176 153.333 103.19C153.373 103.216 153.406 103.256 153.433 103.31ZM166.749 100.55L169.769 106.37C169.809 106.463 169.816 106.563 169.789 106.67C169.762 106.776 169.696 106.85 169.589 106.89C169.536 106.916 169.482 106.93 169.429 106.93C169.269 106.93 169.149 106.863 169.069 106.73L166.069 100.91C166.016 100.816 166.002 100.723 166.029 100.63C166.069 100.523 166.136 100.443 166.229 100.39C166.336 100.336 166.436 100.33 166.529 100.37C166.636 100.396 166.709 100.456 166.749 100.55ZM159.489 89.8097C159.569 89.7297 159.662 89.6897 159.769 89.6897C159.876 89.6897 159.962 89.7297 160.029 89.8097C160.109 89.8897 160.149 89.983 160.149 90.0897V106.25C160.149 106.356 160.109 106.45 160.029 106.53C159.962 106.596 159.876 106.63 159.769 106.63C159.662 106.63 159.569 106.596 159.489 106.53C159.422 106.45 159.389 106.356 159.389 106.25V90.0897C159.389 89.983 159.422 89.8897 159.489 89.8097ZM160.969 92.3897C161.049 92.3097 161.142 92.2697 161.249 92.2697C161.356 92.2697 161.449 92.3097 161.529 92.3897C161.609 92.4563 161.649 92.543 161.649 92.6497V106.25C161.649 106.356 161.609 106.45 161.529 106.53C161.449 106.596 161.356 106.63 161.249 106.63C161.142 106.63 161.049 106.596 160.969 106.53C160.902 106.45 160.869 106.356 160.869 106.25V92.6497C160.869 92.543 160.902 92.4563 160.969 92.3897ZM171.429 106.17C171.482 106.263 171.489 106.363 171.449 106.47C171.422 106.576 171.362 106.65 171.269 106.69C171.216 106.73 171.156 106.75 171.089 106.75C170.942 106.75 170.829 106.676 170.749 106.53L167.409 100.27C167.356 100.176 167.342 100.083 167.369 99.9897C167.409 99.883 167.476 99.803 167.569 99.7497C167.596 99.7363 167.636 99.723 167.689 99.7097C167.716 99.6697 167.742 99.643 167.769 99.6297C168.436 99.163 168.949 98.6163 169.309 97.9897C169.669 97.3497 169.862 96.6763 169.889 95.9697C169.889 95.863 169.922 95.7763 169.989 95.7097C170.069 95.6297 170.162 95.5897 170.269 95.5897H170.289C170.396 95.5897 170.482 95.6297 170.549 95.7097C170.629 95.7897 170.662 95.883 170.649 95.9897C170.636 96.8163 170.422 97.5963 170.009 98.3297C169.596 99.0497 169.009 99.683 168.249 100.23L171.429 106.17ZM169.889 94.8697C169.916 93.7497 169.436 92.763 168.449 91.9097C168.236 91.7097 167.989 91.5297 167.709 91.3697C167.442 91.1963 167.082 91.0163 166.629 90.8297C166.176 90.6297 165.682 90.4897 165.149 90.4097C164.629 90.3163 164.002 90.2563 163.269 90.2297C162.536 90.1897 161.756 90.243 160.929 90.3897C160.822 90.4163 160.722 90.3963 160.629 90.3297C160.549 90.263 160.502 90.1763 160.489 90.0697C160.476 89.963 160.496 89.8697 160.549 89.7897C160.616 89.6963 160.702 89.643 160.809 89.6297C161.449 89.5363 162.062 89.483 162.649 89.4697C163.249 89.443 163.782 89.4497 164.249 89.4897C164.729 89.5297 165.182 89.603 165.609 89.7097C166.049 89.803 166.429 89.9163 166.749 90.0497C167.082 90.1697 167.396 90.3097 167.689 90.4697C167.982 90.6163 168.222 90.7563 168.409 90.8897C168.609 91.023 168.796 91.1697 168.969 91.3297C170.129 92.343 170.689 93.5297 170.649 94.8897C170.649 94.9963 170.609 95.0897 170.529 95.1697C170.462 95.2363 170.376 95.2697 170.269 95.2697C170.149 95.2697 170.049 95.2297 169.969 95.1497C169.902 95.0697 169.876 94.9763 169.889 94.8697ZM179.092 90.0297C180.306 90.0297 181.419 90.403 182.432 91.1497C183.459 91.8963 184.272 92.9097 184.872 94.1897C185.472 95.4697 185.772 96.8697 185.772 98.3897C185.772 99.8963 185.472 101.29 184.872 102.57C184.272 103.85 183.459 104.863 182.432 105.61C181.419 106.356 180.306 106.73 179.092 106.73C178.986 106.73 178.892 106.696 178.812 106.63C178.746 106.55 178.712 106.456 178.712 106.35C178.712 106.23 178.746 106.136 178.812 106.07C178.892 105.99 178.986 105.95 179.092 105.95C180.159 105.95 181.146 105.616 182.052 104.95C182.959 104.27 183.672 103.35 184.192 102.19C184.726 101.016 184.992 99.7497 184.992 98.3897C184.992 97.0163 184.726 95.7497 184.192 94.5897C183.672 93.4163 182.959 92.4963 182.052 91.8297C181.146 91.1497 180.159 90.8097 179.092 90.8097C178.986 90.8097 178.892 90.7697 178.812 90.6897C178.746 90.6097 178.712 90.5163 178.712 90.4097C178.712 90.303 178.746 90.2163 178.812 90.1497C178.892 90.0697 178.986 90.0297 179.092 90.0297ZM178.032 105.93C178.139 105.93 178.226 105.97 178.292 106.05C178.372 106.13 178.412 106.223 178.412 106.33C178.412 106.436 178.372 106.53 178.292 106.61C178.226 106.676 178.139 106.71 178.032 106.71H175.232C175.179 106.723 175.139 106.73 175.112 106.73C175.006 106.73 174.912 106.696 174.832 106.63C174.752 106.55 174.712 106.456 174.712 106.35V98.0697C174.712 97.963 174.752 97.8697 174.832 97.7897C174.912 97.7097 175.006 97.6697 175.112 97.6697C175.219 97.6697 175.306 97.7097 175.372 97.7897C175.452 97.8697 175.492 97.963 175.492 98.0697V105.93H178.032ZM178.032 89.9897C178.139 89.9897 178.226 90.0297 178.292 90.1097C178.372 90.1763 178.412 90.263 178.412 90.3697C178.412 90.4763 178.372 90.5697 178.292 90.6497C178.226 90.7297 178.139 90.7697 178.032 90.7697H174.172V106.33C174.172 106.45 174.132 106.55 174.052 106.63C173.986 106.696 173.899 106.73 173.792 106.73C173.686 106.73 173.592 106.696 173.512 106.63C173.446 106.55 173.412 106.45 173.412 106.33V90.4097C173.412 90.2897 173.466 90.1897 173.572 90.1097C173.652 90.0297 173.746 89.9897 173.852 89.9897H178.032ZM187.456 95.1297C187.35 95.1297 187.256 95.103 187.176 95.0497C187.11 94.983 187.07 94.8963 187.056 94.7897C186.976 94.0297 187.063 93.3097 187.316 92.6297C187.583 91.9363 187.97 91.3497 188.476 90.8697C188.983 90.3897 189.556 89.9897 190.196 89.6697C190.85 89.3363 191.536 89.1163 192.256 89.0097C192.656 88.9697 193.063 88.9497 193.476 88.9497C193.89 88.9363 194.31 88.983 194.736 89.0897C195.163 89.1963 195.576 89.3363 195.976 89.5097C196.376 89.6697 196.763 89.9097 197.136 90.2297C197.51 90.5363 197.85 90.8897 198.156 91.2897C198.463 91.6763 198.736 92.1497 198.976 92.7097C199.216 93.2697 199.403 93.883 199.536 94.5497C199.55 94.643 199.523 94.7363 199.456 94.8297C199.403 94.923 199.323 94.9763 199.216 94.9897C199.176 95.003 199.13 95.003 199.076 94.9897C199.076 94.9897 199.07 94.9963 199.056 95.0097C199.056 95.0097 199.05 95.0097 199.036 95.0097L197.776 95.2297C197.75 95.2297 197.723 95.2297 197.696 95.2297C197.696 95.2297 197.69 95.2297 197.676 95.2297C197.663 95.2163 197.65 95.2097 197.636 95.2097C197.623 95.2097 197.616 95.2097 197.616 95.2097C197.403 95.2097 197.276 95.103 197.236 94.8897C196.983 93.623 196.503 92.683 195.796 92.0697C195.09 91.443 194.13 91.1297 192.916 91.1297C192.81 91.1297 192.716 91.0963 192.636 91.0297C192.57 90.9497 192.536 90.8563 192.536 90.7497C192.536 90.6297 192.576 90.5363 192.656 90.4697C192.736 90.3897 192.836 90.3497 192.956 90.3497C195.623 90.3497 197.27 91.703 197.896 94.4097L198.676 94.2897C198.49 93.5297 198.223 92.863 197.876 92.2897C197.53 91.703 197.143 91.243 196.716 90.9097C196.303 90.5763 195.843 90.303 195.336 90.0897C194.83 89.863 194.33 89.743 193.836 89.7297C193.343 89.703 192.856 89.7163 192.376 89.7697C191.75 89.8763 191.15 90.0697 190.576 90.3497C190.016 90.6163 189.516 90.9563 189.076 91.3697C188.636 91.783 188.296 92.283 188.056 92.8697C187.83 93.443 187.756 94.0563 187.836 94.7097C187.85 94.8163 187.823 94.9097 187.756 94.9897C187.69 95.0697 187.603 95.1163 187.496 95.1297C187.483 95.1297 187.47 95.1297 187.456 95.1297ZM199.496 101.33C199.59 102.09 199.503 102.816 199.236 103.51C198.983 104.19 198.603 104.77 198.096 105.25C197.59 105.73 197.01 106.13 196.356 106.45C195.716 106.77 195.036 106.99 194.316 107.11C193.97 107.163 193.616 107.19 193.256 107.19C192.723 107.19 192.203 107.13 191.696 107.01C191.203 106.89 190.703 106.69 190.196 106.41C189.703 106.13 189.25 105.783 188.836 105.37C188.436 104.943 188.076 104.41 187.756 103.77C187.436 103.116 187.196 102.383 187.036 101.57C187.023 101.463 187.043 101.37 187.096 101.29C187.163 101.196 187.243 101.143 187.336 101.13C187.443 101.103 187.543 101.123 187.636 101.19C187.73 101.243 187.783 101.323 187.796 101.43C187.93 102.11 188.123 102.73 188.376 103.29C188.643 103.85 188.943 104.31 189.276 104.67C189.623 105.03 189.996 105.343 190.396 105.61C190.81 105.876 191.223 106.07 191.636 106.19C192.063 106.296 192.496 106.37 192.936 106.41C193.376 106.45 193.796 106.43 194.196 106.35C195.036 106.216 195.81 105.936 196.516 105.51C197.236 105.083 197.81 104.51 198.236 103.79C198.663 103.056 198.83 102.263 198.736 101.41C198.723 101.303 198.75 101.21 198.816 101.13C198.883 101.05 198.97 101.003 199.076 100.99C199.103 100.976 199.13 100.976 199.156 100.99C199.183 100.99 199.21 100.996 199.236 101.01C199.263 101.01 199.29 101.023 199.316 101.05C199.343 101.063 199.363 101.083 199.376 101.11C199.403 101.123 199.423 101.143 199.436 101.17C199.463 101.183 199.476 101.203 199.476 101.23C199.49 101.256 199.496 101.29 199.496 101.33ZM193.076 97.6497C193.623 97.703 194.03 97.7497 194.296 97.7897C194.576 97.8297 194.956 97.8897 195.436 97.9697C195.93 98.0497 196.31 98.1297 196.576 98.2097C196.843 98.2897 197.156 98.403 197.516 98.5497C197.876 98.6963 198.156 98.8563 198.356 99.0297C198.57 99.203 198.77 99.4163 198.956 99.6697C199.143 99.9097 199.27 100.176 199.336 100.47C199.363 100.576 199.35 100.676 199.296 100.77C199.243 100.863 199.163 100.923 199.056 100.95C199.03 100.95 199.003 100.95 198.976 100.95C198.776 100.95 198.65 100.856 198.596 100.67C198.543 100.43 198.436 100.216 198.276 100.03C198.116 99.843 197.943 99.683 197.756 99.5497C197.583 99.4163 197.33 99.2963 196.996 99.1897C196.676 99.0697 196.396 98.9763 196.156 98.9097C195.916 98.843 195.576 98.7763 195.136 98.7097C194.696 98.6297 194.35 98.5763 194.096 98.5497C193.843 98.5097 193.476 98.463 192.996 98.4097C192.49 98.3563 192.103 98.3163 191.836 98.2897C191.583 98.2497 191.23 98.1897 190.776 98.1097C190.323 98.0297 189.963 97.9563 189.696 97.8897C189.443 97.8097 189.15 97.703 188.816 97.5697C188.483 97.4363 188.223 97.2897 188.036 97.1297C187.85 96.9697 187.676 96.7763 187.516 96.5497C187.356 96.323 187.25 96.0763 187.196 95.8097C187.17 95.703 187.183 95.6097 187.236 95.5297C187.303 95.4363 187.39 95.3763 187.496 95.3497C187.603 95.323 187.696 95.343 187.776 95.4097C187.87 95.463 187.93 95.543 187.956 95.6497C187.996 95.8497 188.083 96.0363 188.216 96.2097C188.35 96.3697 188.496 96.5097 188.656 96.6297C188.83 96.7363 189.063 96.843 189.356 96.9497C189.65 97.0563 189.91 97.1363 190.136 97.1897C190.363 97.243 190.676 97.303 191.076 97.3697C191.49 97.4363 191.81 97.4897 192.036 97.5297C192.276 97.5563 192.623 97.5963 193.076 97.6497Z" fill="white"/>
</g>
<g filter="url(#filter2_d)">
<path d="M87.64 79.8148C87.7067 79.8148 87.7667 79.8348 87.82 79.8748C87.8867 79.9148 87.9333 79.9682 87.96 80.0348C88 80.0882 88.02 80.1482 88.02 80.2148V81.7948C88.02 81.9015 87.98 81.9948 87.9 82.0748C87.8333 82.1415 87.7467 82.1748 87.64 82.1748H78.64C78.64 82.1748 78.6333 82.1748 78.62 82.1748C78.62 82.1748 78.6133 82.1748 78.6 82.1748C78.4933 82.1748 78.4 82.1415 78.32 82.0748C78.2533 81.9948 78.22 81.9015 78.22 81.7948V65.6148C78.22 65.5082 78.2533 65.4148 78.32 65.3348C78.4 65.2548 78.4933 65.2148 78.6 65.2148C78.7067 65.2148 78.7933 65.2548 78.86 65.3348C78.94 65.4148 78.98 65.5082 78.98 65.6148V81.3948H87.24V80.5948H80.16C80.0533 80.5948 79.96 80.5615 79.88 80.4948C79.8 80.4148 79.76 80.3215 79.76 80.2148C79.76 80.1082 79.8 80.0148 79.88 79.9348C79.96 79.8548 80.0533 79.8148 80.16 79.8148H87.64ZM100.866 65.3348C100.946 65.2548 101.039 65.2148 101.146 65.2148C101.253 65.2148 101.346 65.2548 101.426 65.3348C101.506 65.4015 101.546 65.4882 101.546 65.5948V75.7348C101.546 75.8415 101.506 75.9348 101.426 76.0148C101.346 76.0815 101.253 76.1148 101.146 76.1148C101.039 76.1148 100.946 76.0815 100.866 76.0148C100.799 75.9348 100.766 75.8415 100.766 75.7348V65.5948C100.766 65.4882 100.799 65.4015 100.866 65.3348ZM91.1461 76.0148C91.0661 76.0815 90.9728 76.1148 90.8661 76.1148C90.7594 76.1148 90.6661 76.0815 90.5861 76.0148C90.5194 75.9348 90.4861 75.8415 90.4861 75.7348V65.5948C90.4861 65.4882 90.5194 65.4015 90.5861 65.3348C90.6661 65.2548 90.7594 65.2148 90.8661 65.2148H91.9461C91.9594 65.2148 91.9661 65.2148 91.9661 65.2148C91.9794 65.2148 91.9861 65.2148 91.9861 65.2148C91.9994 65.2148 92.0061 65.2148 92.0061 65.2148C92.0194 65.2148 92.0328 65.2148 92.0461 65.2148C92.1528 65.2148 92.2394 65.2548 92.3061 65.3348C92.3861 65.4015 92.4261 65.4882 92.4261 65.5948V72.4748C92.4261 72.5815 92.3861 72.6748 92.3061 72.7548C92.2394 72.8215 92.1528 72.8548 92.0461 72.8548C91.9394 72.8548 91.8461 72.8215 91.7661 72.7548C91.6861 72.6748 91.6461 72.5815 91.6461 72.4748V65.9748H91.2661V75.7348C91.2661 75.8415 91.2261 75.9348 91.1461 76.0148ZM100.866 76.2748C100.946 76.1948 101.039 76.1548 101.146 76.1548C101.253 76.1548 101.339 76.1948 101.406 76.2748C101.486 76.3415 101.526 76.4282 101.526 76.5348C101.526 78.1215 100.986 79.4815 99.9061 80.6148C98.8261 81.7348 97.5194 82.2948 95.9861 82.2948C94.4661 82.2948 93.1661 81.7348 92.0861 80.6148C91.0061 79.4815 90.4661 78.1215 90.4661 76.5348C90.4661 76.4282 90.4994 76.3415 90.5661 76.2748C90.6461 76.1948 90.7394 76.1548 90.8461 76.1548C90.9528 76.1548 91.0394 76.1948 91.1061 76.2748C91.1861 76.3415 91.2261 76.4282 91.2261 76.5348C91.2261 77.4415 91.4394 78.2748 91.8661 79.0348C92.2928 79.7948 92.8728 80.4015 93.6061 80.8548C94.3394 81.2948 95.1328 81.5148 95.9861 81.5148C97.3061 81.5148 98.4328 81.0282 99.3661 80.0548C100.299 79.0815 100.766 77.9082 100.766 76.5348C100.766 76.4282 100.799 76.3415 100.866 76.2748ZM119.142 65.3348C119.222 65.2548 119.316 65.2148 119.422 65.2148C119.529 65.2148 119.616 65.2548 119.682 65.3348C119.762 65.4148 119.802 65.5082 119.802 65.6148V81.7948C119.802 81.9015 119.762 81.9948 119.682 82.0748C119.616 82.1415 119.529 82.1748 119.422 82.1748C119.409 82.1748 119.376 82.1682 119.322 82.1548C119.269 82.1682 119.236 82.1748 119.222 82.1748H117.802C117.789 82.1748 117.756 82.1682 117.702 82.1548C117.649 82.1682 117.616 82.1748 117.602 82.1748C117.496 82.1748 117.402 82.1415 117.322 82.0748C117.256 81.9948 117.222 81.9015 117.222 81.7948V67.2148L111.362 81.9148C111.296 82.0748 111.176 82.1548 111.002 82.1548C110.989 82.1548 110.976 82.1548 110.962 82.1548C110.962 82.1548 110.956 82.1548 110.942 82.1548C110.942 82.1548 110.936 82.1548 110.922 82.1548C110.909 82.1548 110.902 82.1548 110.902 82.1548C110.729 82.1548 110.609 82.0748 110.542 81.9148L104.722 67.5948V81.7948C104.722 81.9015 104.682 81.9948 104.602 82.0748C104.536 82.1548 104.449 82.1948 104.342 82.1948C104.236 82.1948 104.142 82.1548 104.062 82.0748C103.996 81.9948 103.962 81.9015 103.962 81.7948V65.6148C103.962 65.5882 103.969 65.5548 103.982 65.5148C104.036 65.3148 104.156 65.2148 104.342 65.2148C104.516 65.2148 104.636 65.2948 104.702 65.4548L110.942 80.8548L117.082 65.4748C117.162 65.2748 117.309 65.1948 117.522 65.2348C117.562 65.2215 117.589 65.2148 117.602 65.2148C117.709 65.2148 117.802 65.2548 117.882 65.3348C117.962 65.4148 118.002 65.5082 118.002 65.6148V81.4148H119.042V65.6148C119.042 65.5082 119.076 65.4148 119.142 65.3348ZM124.503 81.5948C124.503 81.7015 124.463 81.7948 124.383 81.8748C124.317 81.9415 124.23 81.9748 124.123 81.9748H122.843C122.817 81.9748 122.783 81.9682 122.743 81.9548C122.69 81.9682 122.65 81.9748 122.623 81.9748C122.517 81.9748 122.423 81.9415 122.343 81.8748C122.277 81.7948 122.243 81.7015 122.243 81.5948V65.6148C122.243 65.5082 122.277 65.4148 122.343 65.3348C122.423 65.2548 122.517 65.2148 122.623 65.2148C122.73 65.2148 122.817 65.2548 122.883 65.3348C122.963 65.4148 123.003 65.5082 123.003 65.6148V81.1948H123.723V67.0948C123.723 66.9882 123.763 66.9015 123.843 66.8348C123.923 66.7548 124.017 66.7148 124.123 66.7148C124.23 66.7148 124.317 66.7548 124.383 66.8348C124.463 66.9015 124.503 66.9882 124.503 67.0948V81.5948ZM139.99 65.2148C140.057 65.2148 140.117 65.2348 140.17 65.2748C140.237 65.3148 140.284 65.3682 140.31 65.4348C140.35 65.4882 140.37 65.5482 140.37 65.6148V81.7748C140.37 81.8815 140.33 81.9748 140.25 82.0548C140.184 82.1215 140.097 82.1548 139.99 82.1548C139.884 82.1548 139.79 82.1215 139.71 82.0548C139.644 81.9748 139.61 81.8815 139.61 81.7748V65.9948H138.41V81.7748C138.41 81.7748 138.41 81.7815 138.41 81.7948C138.41 81.8082 138.41 81.8148 138.41 81.8148C138.41 81.9482 138.357 82.0548 138.25 82.1348C138.184 82.1748 138.11 82.1948 138.03 82.1948C137.884 82.1948 137.777 82.1348 137.71 82.0148L127.71 66.8748V81.8548C127.71 81.9615 127.67 82.0548 127.59 82.1348C127.524 82.2148 127.437 82.2548 127.33 82.2548C127.224 82.2548 127.13 82.2148 127.05 82.1348C126.984 82.0548 126.95 81.9615 126.95 81.8548V65.6748C126.95 65.5682 126.984 65.4748 127.05 65.3948C127.13 65.3148 127.224 65.2748 127.33 65.2748C127.33 65.2748 127.33 65.2815 127.33 65.2948C127.344 65.2948 127.357 65.2948 127.37 65.2948C127.517 65.2815 127.63 65.3348 127.71 65.4548L137.65 80.5148V65.6148C137.65 65.5082 137.684 65.4148 137.75 65.3348C137.83 65.2548 137.924 65.2148 138.03 65.2148C138.07 65.2148 138.11 65.2282 138.15 65.2548C138.204 65.2282 138.25 65.2148 138.29 65.2148H139.99ZM149.99 67.6348C149.097 67.6348 148.263 67.9082 147.49 68.4548C146.73 68.9882 146.13 69.7282 145.69 70.6748C145.25 71.6082 145.03 72.6282 145.03 73.7348C145.03 75.4148 145.517 76.8482 146.49 78.0348C147.463 79.2215 148.63 79.8148 149.99 79.8148C150.097 79.8148 150.183 79.8548 150.25 79.9348C150.33 80.0148 150.37 80.1082 150.37 80.2148C150.37 80.3215 150.33 80.4148 150.25 80.4948C150.183 80.5615 150.097 80.5948 149.99 80.5948C149.217 80.5948 148.477 80.4148 147.77 80.0548C147.063 79.6948 146.45 79.2082 145.93 78.5948C145.423 77.9815 145.017 77.2482 144.71 76.3948C144.403 75.5415 144.25 74.6548 144.25 73.7348C144.25 71.8948 144.783 70.3148 145.85 68.9948C146.917 67.6615 148.217 66.9548 149.75 66.8748L149.77 66.8548H149.81C149.837 66.8548 149.863 66.8415 149.89 66.8148C149.917 66.7882 149.943 66.7415 149.97 66.6748C149.997 66.6082 150.01 66.5282 150.01 66.4348C150.01 66.3282 149.99 66.2415 149.95 66.1748C149.91 66.0948 149.87 66.0482 149.83 66.0348C148.937 66.0615 148.083 66.2882 147.27 66.7148C146.457 67.1282 145.757 67.6815 145.17 68.3748C144.583 69.0682 144.11 69.8882 143.75 70.8348C143.403 71.7815 143.23 72.7748 143.23 73.8148C143.23 75.2282 143.53 76.5348 144.13 77.7348C144.743 78.9215 145.57 79.8615 146.61 80.5548C147.65 81.2482 148.777 81.5948 149.99 81.5948C150.097 81.5948 150.183 81.6348 150.25 81.7148C150.33 81.7948 150.37 81.8882 150.37 81.9948C150.37 82.1015 150.33 82.1882 150.25 82.2548C150.183 82.3348 150.097 82.3748 149.99 82.3748C148.63 82.3748 147.37 81.9948 146.21 81.2348C145.063 80.4615 144.15 79.4215 143.47 78.1148C142.803 76.7948 142.47 75.3615 142.47 73.8148C142.47 72.2948 142.79 70.8882 143.43 69.5948C144.083 68.3015 144.97 67.2748 146.09 66.5148C147.21 65.7415 148.43 65.3282 149.75 65.2748C149.79 65.2615 149.81 65.2548 149.81 65.2548C149.823 65.2548 149.83 65.2615 149.83 65.2748C149.843 65.2748 149.85 65.2748 149.85 65.2748C149.863 65.2748 149.883 65.2748 149.91 65.2748C149.95 65.2615 149.977 65.2548 149.99 65.2548C150.137 65.2548 150.243 65.3215 150.31 65.4548C150.63 65.6815 150.79 66.0148 150.79 66.4548C150.79 66.8815 150.63 67.2082 150.31 67.4348C150.243 67.5682 150.137 67.6348 149.99 67.6348ZM151.43 65.2548C152.777 65.2548 154.003 65.6348 155.11 66.3948C156.217 67.1415 157.09 68.1748 157.73 69.4948C158.37 70.8015 158.69 72.2415 158.69 73.8148C158.69 75.3615 158.357 76.7948 157.69 78.1148C157.023 79.4215 156.11 80.4615 154.95 81.2348C153.79 81.9948 152.53 82.3748 151.17 82.3748C151.063 82.3748 150.97 82.3348 150.89 82.2548C150.823 82.1882 150.79 82.1015 150.79 81.9948C150.79 81.8882 150.823 81.7948 150.89 81.7148C150.97 81.6348 151.063 81.5948 151.17 81.5948C152.397 81.5948 153.523 81.2482 154.55 80.5548C155.59 79.8615 156.41 78.9215 157.01 77.7348C157.623 76.5348 157.93 75.2282 157.93 73.8148C157.93 72.7482 157.757 71.7348 157.41 70.7748C157.077 69.8015 156.623 68.9748 156.05 68.2948C155.477 67.6015 154.783 67.0548 153.97 66.6548C153.17 66.2415 152.323 66.0348 151.43 66.0348C151.323 66.0348 151.23 66.0015 151.15 65.9348C151.083 65.8548 151.05 65.7615 151.05 65.6548C151.05 65.5748 151.063 65.5082 151.09 65.4548C151.13 65.3882 151.177 65.3415 151.23 65.3148C151.297 65.2748 151.363 65.2548 151.43 65.2548ZM170.944 65.3348C171.024 65.2548 171.118 65.2148 171.224 65.2148C171.331 65.2148 171.424 65.2548 171.504 65.3348C171.584 65.4015 171.624 65.4882 171.624 65.5948V75.7348C171.624 75.8415 171.584 75.9348 171.504 76.0148C171.424 76.0815 171.331 76.1148 171.224 76.1148C171.118 76.1148 171.024 76.0815 170.944 76.0148C170.878 75.9348 170.844 75.8415 170.844 75.7348V65.5948C170.844 65.4882 170.878 65.4015 170.944 65.3348ZM161.224 76.0148C161.144 76.0815 161.051 76.1148 160.944 76.1148C160.838 76.1148 160.744 76.0815 160.664 76.0148C160.598 75.9348 160.564 75.8415 160.564 75.7348V65.5948C160.564 65.4882 160.598 65.4015 160.664 65.3348C160.744 65.2548 160.838 65.2148 160.944 65.2148H162.024C162.038 65.2148 162.044 65.2148 162.044 65.2148C162.058 65.2148 162.064 65.2148 162.064 65.2148C162.078 65.2148 162.084 65.2148 162.084 65.2148C162.098 65.2148 162.111 65.2148 162.124 65.2148C162.231 65.2148 162.318 65.2548 162.384 65.3348C162.464 65.4015 162.504 65.4882 162.504 65.5948V72.4748C162.504 72.5815 162.464 72.6748 162.384 72.7548C162.318 72.8215 162.231 72.8548 162.124 72.8548C162.018 72.8548 161.924 72.8215 161.844 72.7548C161.764 72.6748 161.724 72.5815 161.724 72.4748V65.9748H161.344V75.7348C161.344 75.8415 161.304 75.9348 161.224 76.0148ZM170.944 76.2748C171.024 76.1948 171.118 76.1548 171.224 76.1548C171.331 76.1548 171.418 76.1948 171.484 76.2748C171.564 76.3415 171.604 76.4282 171.604 76.5348C171.604 78.1215 171.064 79.4815 169.984 80.6148C168.904 81.7348 167.598 82.2948 166.064 82.2948C164.544 82.2948 163.244 81.7348 162.164 80.6148C161.084 79.4815 160.544 78.1215 160.544 76.5348C160.544 76.4282 160.578 76.3415 160.644 76.2748C160.724 76.1948 160.818 76.1548 160.924 76.1548C161.031 76.1548 161.118 76.1948 161.184 76.2748C161.264 76.3415 161.304 76.4282 161.304 76.5348C161.304 77.4415 161.518 78.2748 161.944 79.0348C162.371 79.7948 162.951 80.4015 163.684 80.8548C164.418 81.2948 165.211 81.5148 166.064 81.5148C167.384 81.5148 168.511 81.0282 169.444 80.0548C170.378 79.0815 170.844 77.9082 170.844 76.5348C170.844 76.4282 170.878 76.3415 170.944 76.2748ZM174.08 70.6748C173.974 70.6748 173.88 70.6482 173.8 70.5948C173.734 70.5282 173.694 70.4415 173.68 70.3348C173.6 69.5748 173.687 68.8548 173.94 68.1748C174.207 67.4815 174.594 66.8948 175.1 66.4148C175.607 65.9348 176.18 65.5348 176.82 65.2148C177.474 64.8815 178.16 64.6615 178.88 64.5548C179.28 64.5148 179.687 64.4948 180.1 64.4948C180.514 64.4815 180.934 64.5282 181.36 64.6348C181.787 64.7415 182.2 64.8815 182.6 65.0548C183 65.2148 183.387 65.4548 183.76 65.7748C184.134 66.0815 184.474 66.4348 184.78 66.8348C185.087 67.2215 185.36 67.6948 185.6 68.2548C185.84 68.8148 186.027 69.4282 186.16 70.0948C186.174 70.1882 186.147 70.2815 186.08 70.3748C186.027 70.4682 185.947 70.5215 185.84 70.5348C185.8 70.5482 185.754 70.5482 185.7 70.5348C185.7 70.5348 185.694 70.5415 185.68 70.5548C185.68 70.5548 185.674 70.5548 185.66 70.5548L184.4 70.7748C184.374 70.7748 184.347 70.7748 184.32 70.7748C184.32 70.7748 184.314 70.7748 184.3 70.7748C184.287 70.7615 184.274 70.7548 184.26 70.7548C184.247 70.7548 184.24 70.7548 184.24 70.7548C184.027 70.7548 183.9 70.6482 183.86 70.4348C183.607 69.1682 183.127 68.2282 182.42 67.6148C181.714 66.9882 180.754 66.6748 179.54 66.6748C179.434 66.6748 179.34 66.6415 179.26 66.5748C179.194 66.4948 179.16 66.4015 179.16 66.2948C179.16 66.1748 179.2 66.0815 179.28 66.0148C179.36 65.9348 179.46 65.8948 179.58 65.8948C182.247 65.8948 183.894 67.2482 184.52 69.9548L185.3 69.8348C185.114 69.0748 184.847 68.4082 184.5 67.8348C184.154 67.2482 183.767 66.7882 183.34 66.4548C182.927 66.1215 182.467 65.8482 181.96 65.6348C181.454 65.4082 180.954 65.2882 180.46 65.2748C179.967 65.2482 179.48 65.2615 179 65.3148C178.374 65.4215 177.774 65.6148 177.2 65.8948C176.64 66.1615 176.14 66.5015 175.7 66.9148C175.26 67.3282 174.92 67.8282 174.68 68.4148C174.454 68.9882 174.38 69.6015 174.46 70.2548C174.474 70.3615 174.447 70.4548 174.38 70.5348C174.314 70.6148 174.227 70.6615 174.12 70.6748C174.107 70.6748 174.094 70.6748 174.08 70.6748ZM186.12 76.8748C186.214 77.6348 186.127 78.3615 185.86 79.0548C185.607 79.7348 185.227 80.3148 184.72 80.7948C184.214 81.2748 183.634 81.6748 182.98 81.9948C182.34 82.3148 181.66 82.5348 180.94 82.6548C180.594 82.7082 180.24 82.7348 179.88 82.7348C179.347 82.7348 178.827 82.6748 178.32 82.5548C177.827 82.4348 177.327 82.2348 176.82 81.9548C176.327 81.6748 175.874 81.3282 175.46 80.9148C175.06 80.4882 174.7 79.9548 174.38 79.3148C174.06 78.6615 173.82 77.9282 173.66 77.1148C173.647 77.0082 173.667 76.9148 173.72 76.8348C173.787 76.7415 173.867 76.6882 173.96 76.6748C174.067 76.6482 174.167 76.6682 174.26 76.7348C174.354 76.7882 174.407 76.8682 174.42 76.9748C174.554 77.6548 174.747 78.2748 175 78.8348C175.267 79.3948 175.567 79.8548 175.9 80.2148C176.247 80.5748 176.62 80.8882 177.02 81.1548C177.434 81.4215 177.847 81.6148 178.26 81.7348C178.687 81.8415 179.12 81.9148 179.56 81.9548C180 81.9948 180.42 81.9748 180.82 81.8948C181.66 81.7615 182.434 81.4815 183.14 81.0548C183.86 80.6282 184.434 80.0548 184.86 79.3348C185.287 78.6015 185.454 77.8082 185.36 76.9548C185.347 76.8482 185.374 76.7548 185.44 76.6748C185.507 76.5948 185.594 76.5482 185.7 76.5348C185.727 76.5215 185.754 76.5215 185.78 76.5348C185.807 76.5348 185.834 76.5415 185.86 76.5548C185.887 76.5548 185.914 76.5682 185.94 76.5948C185.967 76.6082 185.987 76.6282 186 76.6548C186.027 76.6682 186.047 76.6882 186.06 76.7148C186.087 76.7282 186.1 76.7482 186.1 76.7748C186.114 76.8015 186.12 76.8348 186.12 76.8748ZM179.7 73.1948C180.247 73.2482 180.654 73.2948 180.92 73.3348C181.2 73.3748 181.58 73.4348 182.06 73.5148C182.554 73.5948 182.934 73.6748 183.2 73.7548C183.467 73.8348 183.78 73.9482 184.14 74.0948C184.5 74.2415 184.78 74.4015 184.98 74.5748C185.194 74.7482 185.394 74.9615 185.58 75.2148C185.767 75.4548 185.894 75.7215 185.96 76.0148C185.987 76.1215 185.974 76.2215 185.92 76.3148C185.867 76.4082 185.787 76.4682 185.68 76.4948C185.654 76.4948 185.627 76.4948 185.6 76.4948C185.4 76.4948 185.274 76.4015 185.22 76.2148C185.167 75.9748 185.06 75.7615 184.9 75.5748C184.74 75.3882 184.567 75.2282 184.38 75.0948C184.207 74.9615 183.954 74.8415 183.62 74.7348C183.3 74.6148 183.02 74.5215 182.78 74.4548C182.54 74.3882 182.2 74.3215 181.76 74.2548C181.32 74.1748 180.974 74.1215 180.72 74.0948C180.467 74.0548 180.1 74.0082 179.62 73.9548C179.114 73.9015 178.727 73.8615 178.46 73.8348C178.207 73.7948 177.854 73.7348 177.4 73.6548C176.947 73.5748 176.587 73.5015 176.32 73.4348C176.067 73.3548 175.774 73.2482 175.44 73.1148C175.107 72.9815 174.847 72.8348 174.66 72.6748C174.474 72.5148 174.3 72.3215 174.14 72.0948C173.98 71.8682 173.874 71.6215 173.82 71.3548C173.794 71.2482 173.807 71.1548 173.86 71.0748C173.927 70.9815 174.014 70.9215 174.12 70.8948C174.227 70.8682 174.32 70.8882 174.4 70.9548C174.494 71.0082 174.554 71.0882 174.58 71.1948C174.62 71.3948 174.707 71.5815 174.84 71.7548C174.974 71.9148 175.12 72.0548 175.28 72.1748C175.454 72.2815 175.687 72.3882 175.98 72.4948C176.274 72.6015 176.534 72.6815 176.76 72.7348C176.987 72.7882 177.3 72.8482 177.7 72.9148C178.114 72.9815 178.434 73.0348 178.66 73.0748C178.9 73.1015 179.247 73.1415 179.7 73.1948Z" fill="white"/>
</g>
<g filter="url(#filter3_d)">
<path d="M88.902 101.731C89.0172 101.749 89.1067 101.81 89.1704 101.913C89.2341 102.017 89.2476 102.13 89.2111 102.253C89.1932 102.368 89.1324 102.458 89.0287 102.521L76.6975 110.508C76.6865 110.534 76.6625 110.554 76.6254 110.57C76.403 110.66 76.2282 110.601 76.1008 110.394C76.0371 110.29 76.0236 110.177 76.0601 110.054C76.078 109.939 76.1388 109.85 76.2425 109.786L76.4536 109.668L78.8357 93.2881C78.4216 93.6505 78.0278 93.9831 77.6543 94.2859C77.3213 94.529 77.1308 94.6712 77.0827 94.7123C77.0387 94.8165 76.9611 94.8912 76.8499 94.9363C76.8314 94.9438 76.8128 94.9514 76.7943 94.9589C76.5569 95.0121 76.3838 94.9313 76.2749 94.7165C76.2072 94.5497 76.2177 94.416 76.3063 94.3152C76.3873 94.196 76.6572 93.9568 77.1159 93.5979C77.8334 93.0259 78.4675 92.4878 79.0182 91.9835L79.5511 88.432C79.5656 88.3614 79.5876 88.3093 79.6172 88.2757C79.6942 88.0933 79.8312 88.0053 80.028 88.0117C81.0981 88.0952 81.722 88.4355 81.8997 89.0325C82.1451 89.7963 81.4602 90.9271 79.845 92.4248L77.4195 109.017L88.5737 101.8C88.6773 101.736 88.7868 101.713 88.902 101.731ZM80.3614 88.9125L80.0493 91.0143C80.8399 90.1968 81.1859 89.6138 81.0875 89.2652C81.0458 89.1094 80.8038 88.9918 80.3614 88.9125ZM84.9643 100.513C84.8532 100.558 84.6047 100.637 84.2191 100.751C84.1605 101.617 84.3098 102.117 84.667 102.253C84.8905 102.378 85.2001 102.263 85.5956 101.908C86.0097 101.546 86.371 101.053 86.6798 100.432C86.8083 100.164 86.9974 100.098 87.247 100.234C87.5075 100.344 87.5828 100.529 87.4727 100.79C86.9068 101.948 86.2255 102.688 85.4287 103.012C85.0395 103.17 84.6794 103.187 84.3482 103.062C83.574 102.751 83.2522 101.931 83.3827 100.605C83.3827 100.605 83.3696 100.599 83.3436 100.588C83.3361 100.57 83.3416 100.557 83.3601 100.549C83.3335 100.431 83.3514 100.315 83.414 100.204C83.4859 99.7427 83.6153 99.2908 83.8024 98.8479C84.1836 97.8728 84.6903 97.1274 85.3227 96.6115C85.9551 96.0957 86.5411 95.944 87.0807 96.1566C87.0993 96.1491 87.1589 96.1896 87.2597 96.2783L87.2874 96.267C87.2874 96.267 87.2912 96.2762 87.2987 96.2948C87.3173 96.2872 87.3303 96.2927 87.3378 96.3113C87.3975 96.3518 87.4646 96.4109 87.5393 96.4885C87.614 96.5661 87.6513 96.6049 87.6513 96.6049C87.6513 96.6049 87.6551 96.6142 87.6626 96.6327C87.6811 96.6252 87.6849 96.6344 87.6739 96.6605C87.6739 96.6605 87.6832 96.6567 87.7017 96.6492C87.7729 96.7714 87.8236 96.8695 87.8537 96.9437C88.0945 97.5366 87.9418 98.1707 87.3957 98.8457C86.8495 99.5208 86.0391 100.077 84.9643 100.513ZM84.6119 99.1667C84.5163 99.3566 84.4413 99.5706 84.3868 99.8086C84.4054 99.801 84.4462 99.7953 84.5093 99.7912C84.5834 99.7611 84.6298 99.7423 84.6483 99.7348C85.1857 99.5166 85.6596 99.2485 86.0702 98.9307C86.4808 98.6128 86.7689 98.3124 86.9346 98.0292C87.1112 97.72 87.1582 97.4635 87.0754 97.2597C87.0453 97.1856 86.9744 97.1172 86.8626 97.0547C86.8551 97.0362 86.8383 97.0214 86.8122 97.0104C86.7972 96.9733 86.7804 96.9586 86.7619 96.9661C86.4938 96.8375 86.1362 96.9935 85.6891 97.4341C85.2531 97.8486 84.894 98.4262 84.6119 99.1667ZM94.4602 80.791C94.4996 80.516 94.6568 80.3982 94.9319 80.4376C95.2254 80.4695 95.3563 80.6322 95.3244 80.9258L92.2409 100.602C92.2195 100.762 92.1346 100.872 91.9864 100.932C91.9123 100.962 91.8399 100.97 91.7692 100.955C91.4757 100.923 91.3541 100.757 91.4045 100.456L91.5549 99.3909C90.9769 100.36 90.4377 100.945 89.9374 101.149C89.7521 101.224 89.5665 101.245 89.3807 101.213C89.1091 101.129 88.8871 100.928 88.7146 100.609C88.4969 100.179 88.3974 99.6154 88.416 98.9171C88.4346 98.2188 88.5612 97.5737 88.7958 96.982C89.0634 96.3121 89.439 95.6954 89.9226 95.1321C90.3987 94.5502 90.8648 94.2098 91.3211 94.1109C91.6848 94.0495 91.9917 94.1408 92.2418 94.3846C92.2493 94.4031 92.2606 94.4309 92.2756 94.468C92.3092 94.4975 92.3298 94.5215 92.3373 94.5401L94.4602 80.791ZM91.9731 96.2745C91.9998 95.7024 91.8806 95.276 91.6155 94.9951C91.5819 94.9656 91.5428 94.949 91.4982 94.9456C91.4611 94.9606 91.4241 94.9757 91.387 94.9907C91.1091 95.1036 90.7911 95.3838 90.4332 95.8314C90.0863 96.2529 89.8103 96.7427 89.6053 97.3009C89.3412 97.9262 89.2276 98.5767 89.2645 99.2525C89.32 99.9207 89.439 100.293 89.6214 100.37C89.7291 100.37 89.9471 100.163 90.2755 99.7486C90.6039 99.3346 90.9372 98.7999 91.2754 98.1445C91.3414 97.9881 91.4443 97.7629 91.5838 97.4688C91.841 96.9326 91.9708 96.5345 91.9731 96.2745ZM103.986 75.5304C104.294 75.4916 104.595 75.5959 104.89 75.8432C105.177 76.0719 105.391 76.3846 105.53 76.7813C105.748 77.3187 105.755 77.9203 105.551 78.5862C105.357 79.226 104.907 79.8189 104.201 80.3648C103.982 80.5182 103.787 80.4895 103.615 80.2787L103.588 80.29C103.58 80.2715 103.576 80.2622 103.576 80.2622C103.576 80.2622 103.572 80.253 103.565 80.2344C103.531 80.2049 103.507 80.1716 103.492 80.1345C103.439 80.0048 103.326 79.9107 103.151 79.8522C102.358 79.5481 100.707 79.8947 98.198 80.8921C97.9363 81.2574 97.7243 81.5593 97.5621 81.7979C96.8729 82.8117 96.2969 83.8119 95.8341 84.7985C95.3714 85.7852 95.0623 86.6986 94.907 87.5387C94.7517 88.3789 94.7554 89.079 94.918 89.6389C94.9446 89.7576 95.0639 89.8387 95.2758 89.8822C95.4988 89.8996 95.8143 89.8793 96.2226 89.8215C96.6308 89.7636 96.9759 89.7098 97.2579 89.6601C97.5399 89.6103 97.9091 89.536 98.3654 89.437C98.8217 89.3381 99.1685 89.262 99.4059 89.2087C99.6434 89.1555 99.9662 89.0999 100.374 89.0421C100.783 88.9842 101.113 88.9472 101.365 88.931C101.618 88.9149 101.882 88.9265 102.157 88.9659C102.443 88.9793 102.69 89.03 102.898 89.118C103.654 89.4372 104.173 89.9711 104.456 90.7198C104.663 91.2833 104.718 91.8976 104.621 92.5629C104.535 93.2022 104.386 93.7378 104.173 94.1697C103.75 94.989 102.84 96.1247 101.444 97.5767C100.074 99.0398 98.8237 100.001 97.6933 100.46C97.1004 100.701 96.5937 100.755 96.1733 100.624C94.9829 100.244 94.6064 98.5726 95.044 95.6103C95.0834 95.3353 95.2444 95.2267 95.527 95.2847C95.8206 95.3165 95.9476 95.47 95.9082 95.745C95.535 98.2279 95.7073 99.5826 96.4253 99.8091C97.1769 100.065 98.397 99.3754 100.086 97.7398C101.774 96.1043 102.878 94.7819 103.396 93.7727C103.554 93.471 103.677 93.0544 103.763 92.5229C103.86 91.9653 103.819 91.4641 103.638 91.0194C103.454 90.5115 103.101 90.1476 102.58 89.9275C102.032 89.6963 100.687 89.8111 98.5424 90.2717C98.0676 90.3782 97.7115 90.4581 97.4741 90.5113C97.2291 90.546 96.9063 90.6016 96.5056 90.6779C96.1159 90.7283 95.8134 90.754 95.598 90.7551C95.3936 90.7302 95.1669 90.7035 94.9179 90.6751C94.6799 90.6206 94.49 90.5251 94.3481 90.3884C94.2248 90.2442 94.1348 90.0757 94.0781 89.8829C93.7754 88.8185 93.8894 87.5311 94.42 86.0204C94.9691 84.5022 95.7319 83.0052 96.7084 81.5294C95.7598 81.9578 94.9115 82.367 94.1633 82.7572C94.0967 82.8058 94.0226 82.8359 93.9409 82.8475C93.8703 82.833 93.7959 82.8093 93.7177 82.7762C93.6581 82.7357 93.6132 82.6784 93.5831 82.6042C93.5195 82.5006 93.5096 82.3966 93.5536 82.2924C93.5901 82.1697 93.6602 82.0765 93.7639 82.0128C95.0083 81.3563 96.3162 80.7497 97.6874 80.1928C98.676 78.9063 99.7196 77.8349 100.818 76.9787C101.928 76.0964 102.984 75.6136 103.986 75.5304ZM103.995 79.3798C104.324 79.0736 104.547 78.7456 104.664 78.3958C104.8 78.0386 104.861 77.7653 104.849 77.5759C104.837 77.3866 104.801 77.2178 104.741 77.0695C104.695 76.9584 104.645 76.8602 104.589 76.7751C104.525 76.6714 104.463 76.5993 104.404 76.5588C104.336 76.4997 104.277 76.4592 104.225 76.4372C104.165 76.3966 104.104 76.3784 104.041 76.3824C102.667 76.5085 101.081 77.5734 99.2831 79.5772C101.237 78.9133 102.629 78.7259 103.458 79.015C103.667 79.103 103.846 79.2246 103.995 79.3798ZM108.751 75.0847C108.783 74.7911 108.94 74.6733 109.223 74.7312C109.516 74.7631 109.644 74.9166 109.604 75.1916L107.313 89.8831C108.187 87.8878 109.027 86.9531 109.834 87.0788C110.09 87.1258 110.303 87.2769 110.471 87.5323C110.778 87.9689 110.947 88.6774 110.978 89.6577C111.002 90.6195 110.908 91.5318 110.697 92.3945C110.639 92.6771 110.469 92.7894 110.186 92.7315C109.896 92.655 109.789 92.4717 109.866 92.1816C109.975 91.7057 110.045 91.2132 110.075 90.7042C110.117 90.1692 110.12 89.7254 110.085 89.3727C110.061 88.994 110.015 88.6674 109.946 88.393C109.87 88.1 109.784 87.9407 109.688 87.9152C109.587 87.9343 109.456 88.0093 109.293 88.1401C109.123 88.2524 108.786 88.8317 108.283 89.878C107.779 90.9242 107.263 92.3642 106.734 94.198C106.72 94.2686 106.679 94.3283 106.613 94.3769L106.56 94.8841C106.52 95.0515 106.426 95.1652 106.277 95.2254C106.203 95.2555 106.131 95.2634 106.06 95.2489C105.778 95.1909 105.656 95.0244 105.696 94.7494L108.751 75.0847ZM115.603 84.7682C116.203 85.0213 116.573 85.5616 116.715 86.389C116.849 87.198 116.714 88.0622 116.311 88.9816C115.936 89.8675 115.429 90.5591 114.789 91.0564C114.59 91.2023 114.379 91.3204 114.156 91.4107C113.656 91.6139 113.197 91.6274 112.78 91.4514C112.155 91.1872 111.783 90.6154 111.663 89.7358C111.573 88.9303 111.706 88.0884 112.062 87.2101C112.436 86.3242 112.947 85.6419 113.594 85.1631C114.308 84.6357 114.978 84.504 115.603 84.7682ZM115.529 88.6515C115.826 87.948 115.936 87.2882 115.858 86.6721C115.792 86.0299 115.597 85.6558 115.273 85.5498C115.065 85.4618 114.831 85.4704 114.571 85.5758C114.423 85.636 114.277 85.7277 114.133 85.8511C113.763 86.1093 113.432 86.4917 113.141 86.9983C113.157 87.0353 113.162 87.0762 113.159 87.1208C113.112 87.485 113.112 87.7227 113.157 87.8338C113.388 87.9775 113.422 88.1686 113.26 88.4071C113.22 88.4667 113.162 88.5116 113.088 88.5417C112.94 88.6019 112.793 88.586 112.648 88.4939C112.622 88.4829 112.609 88.4774 112.609 88.4774C112.601 88.4588 112.598 88.4496 112.598 88.4496C112.511 88.8734 112.485 89.2617 112.52 89.6143C112.594 90.1673 112.79 90.5191 113.111 90.6697C113.442 90.7942 113.831 90.6901 114.279 90.3572C114.793 89.9757 115.21 89.4071 115.529 88.6515ZM121.373 82.1661C121.439 81.902 121.607 81.812 121.879 81.896C122.161 81.954 122.264 82.128 122.188 82.4181C122.031 82.9351 121.832 83.6418 121.592 84.5381C121.056 86.4611 120.652 87.7259 120.38 88.3327C120.109 88.9395 119.726 89.2461 119.232 89.2524C118.935 89.2651 118.698 89.1345 118.522 88.8606C118.481 88.8125 118.453 88.7699 118.438 88.7329C117.828 89.9951 117.188 90.784 116.517 91.0994C116.499 91.107 116.471 91.1182 116.434 91.1333C116.156 91.2462 115.913 91.2586 115.704 91.1705C115.314 91.0055 115.154 90.6386 115.225 90.07C115.289 89.4829 115.518 88.5049 115.912 87.1361C116.266 85.9346 116.502 85.0291 116.622 84.4193C116.68 84.1368 116.854 84.0337 117.144 84.1102C117.426 84.1681 117.539 84.3384 117.481 84.621C117.332 85.2643 117.086 86.1736 116.743 87.349C116.262 89.034 116.04 90.0305 116.079 90.3385C116.872 89.9518 117.638 88.7018 118.377 86.5884C118.457 86.2537 118.563 85.93 118.695 85.6174C118.812 85.3753 118.998 85.3001 119.251 85.3916C119.504 85.4831 119.585 85.6554 119.493 85.9084C119.406 86.2246 119.314 86.5315 119.219 86.8291C119.117 87.2159 119.076 87.5671 119.097 87.8826C119.109 88.1797 119.159 88.354 119.244 88.4055C119.415 88.4009 119.599 88.1103 119.797 87.5336C120.005 86.9308 120.301 85.9581 120.684 84.6153C120.713 84.474 120.735 84.3681 120.749 84.2974C121.03 83.3415 121.238 82.631 121.373 82.1661Z" fill="url(#paint0_linear)"/>
</g>
<defs>
<filter id="filter0_d" x="40.3988" y="21.5198" width="183.846" height="158.915" filterUnits="userSpaceOnUse" color-interpolation-filters="sRGB">
<feFlood flood-opacity="0" result="BackgroundImageFix"/>
<feColorMatrix in="SourceAlpha" type="matrix" values="0 0 0 0 0 0 0 0 0 0 0 0 0 0 0 0 0 0 127 0"/>
<feOffset/>
<feGaussianBlur stdDeviation="2.5"/>
<feColorMatrix type="matrix" values="0 0 0 0 0.921569 0 0 0 0 0.341176 0 0 0 0 0.341176 0 0 0 1 0"/>
<feBlend mode="normal" in2="BackgroundImageFix" result="effect1_dropShadow"/>
<feBlend mode="normal" in="SourceGraphic" in2="effect1_dropShadow" result="shape"/>
</filter>
<filter id="filter1_d" x="101.061" y="85.9475" width="101.479" height="24.2422" filterUnits="userSpaceOnUse" color-interpolation-filters="sRGB">
<feFlood flood-opacity="0" result="BackgroundImageFix"/>
<feColorMatrix in="SourceAlpha" type="matrix" values="0 0 0 0 0 0 0 0 0 0 0 0 0 0 0 0 0 0 127 0"/>
<feOffset/>
<feGaussianBlur stdDeviation="1.5"/>
<feColorMatrix type="matrix" values="0 0 0 0 1 0 0 0 0 1 0 0 0 0 1 0 0 0 1 0"/>
<feBlend mode="normal" in2="BackgroundImageFix" result="effect1_dropShadow"/>
<feBlend mode="normal" in="SourceGraphic" in2="effect1_dropShadow" result="shape"/>
</filter>
<filter id="filter2_d" x="75.22" y="61.4927" width="113.944" height="24.2422" filterUnits="userSpaceOnUse" color-interpolation-filters="sRGB">
<feFlood flood-opacity="0" result="BackgroundImageFix"/>
<feColorMatrix in="SourceAlpha" type="matrix" values="0 0 0 0 0 0 0 0 0 0 0 0 0 0 0 0 0 0 127 0"/>
<feOffset/>
<feGaussianBlur stdDeviation="1.5"/>
<feColorMatrix type="matrix" values="0 0 0 0 1 0 0 0 0 1 0 0 0 0 1 0 0 0 1 0"/>
<feBlend mode="normal" in2="BackgroundImageFix" result="effect1_dropShadow"/>
<feBlend mode="normal" in="SourceGraphic" in2="effect1_dropShadow" result="shape"/>
</filter>
<filter id="filter3_d" x="74.0401" y="72.717" width="50.1721" height="39.8937" filterUnits="userSpaceOnUse" color-interpolation-filters="sRGB">
<feFlood flood-opacity="0" result="BackgroundImageFix"/>
<feColorMatrix in="SourceAlpha" type="matrix" values="0 0 0 0 0 0 0 0 0 0 0 0 0 0 0 0 0 0 127 0"/>
<feOffset/>
<feGaussianBlur stdDeviation="1"/>
<feColorMatrix type="matrix" values="0 0 0 0 0 0 0 0 0 0 0 0 0 0 0 0 0 0 1 0"/>
<feBlend mode="normal" in2="BackgroundImageFix" result="effect1_dropShadow"/>
<feBlend mode="normal" in="SourceGraphic" in2="effect1_dropShadow" result="shape"/>
</filter>
<linearGradient id="paint0_linear" x1="90.3225" y1="73.0921" x2="101.678" y2="101.054" gradientUnits="userSpaceOnUse">
<stop offset="0.114583" stop-color="#9B51E0"/>
<stop offset="0.307292" stop-color="#2F80ED"/>
<stop offset="0.682292" stop-color="#EB5757"/>
<stop offset="1" stop-color="#F2C94C"/>
</linearGradient>
</defs>
</svg>
