<svg width="157" height="94" viewBox="0 0 157 94" fill="none" xmlns="http://www.w3.org/2000/svg">
<g filter="url(#filter0_d)">
<path d="M6.36606 5.70836C6.04606 5.74836 5.80606 6.02836 5.80606 6.30836V34.4284C5.72606 34.7084 5.80606 34.9884 6.04606 35.1484C6.08606 35.1484 6.08606 35.1484 6.08606 35.1884C6.12606 35.1884 6.16606 35.1884 6.20606 35.2284C6.28606 35.2284 6.32606 35.2284 6.40606 35.2284C6.44606 35.2684 6.48606 35.2284 6.52606 35.2284H17.7661C18.0861 35.2284 18.3661 34.9484 18.3661 34.6284C18.3661 34.3084 18.0861 34.0284 17.7661 34.0284H7.00606V6.30836C7.00606 5.98836 6.68606 5.66836 6.36606 5.70836ZM22.3417 5.66836C22.0617 5.70836 21.7817 5.98836 21.7817 6.26836V28.9084V28.9484V29.0284C21.8217 32.4284 24.6617 35.2284 28.0617 35.2284C31.5017 35.2284 34.3417 32.4284 34.3817 29.0284V28.9484V28.9084V6.26836C34.3817 5.98836 34.0617 5.66836 33.7817 5.66836C33.4617 5.66836 33.1417 5.98836 33.1817 6.26836V28.9484C33.1417 28.9884 33.1417 28.9884 33.1817 28.9884C33.1417 31.7884 30.8617 34.0284 28.0617 34.0284C25.3017 34.0284 22.9817 31.7484 22.9817 28.9484C23.0217 28.9484 23.0217 28.9484 22.9817 28.9084V6.26836C23.0217 5.94836 22.7017 5.66836 22.3417 5.66836ZM38.3573 5.70836C38.2773 5.70836 38.1973 5.74836 38.1173 5.78836C38.0773 5.82836 38.0773 5.82836 38.0373 5.86836C37.9973 5.86836 37.9973 5.86836 37.9973 5.86836V5.90836C37.9573 5.90836 37.9573 5.90836 37.9573 5.94836C37.9173 5.94836 37.9173 5.98836 37.9173 5.98836C37.9173 6.02836 37.8773 6.02836 37.8773 6.02836V6.06836V6.10836C37.8373 6.10836 37.8373 6.10836 37.8373 6.14836C37.8373 6.18836 37.8373 6.18836 37.8373 6.18836C37.8373 6.22836 37.8373 6.22836 37.7973 6.26836V6.30836C37.7973 6.34836 37.7973 6.38836 37.7973 6.38836V34.6284C37.7973 34.9484 38.0773 35.2284 38.3973 35.2284C38.7173 35.2684 39.0373 34.9484 38.9973 34.6284V10.0284L43.4773 23.3884C43.5173 23.4684 43.5173 23.5484 43.5973 23.6284V23.6684C43.6373 23.7084 43.6373 23.7484 43.6773 23.7884H43.7173V23.8284H43.7573H43.7973C43.7973 23.8684 43.7973 23.8684 43.7973 23.8684C43.8373 23.8684 43.8373 23.8684 43.8373 23.8684H43.8773C43.9173 23.9084 43.9573 23.9084 43.9973 23.9484H44.0373H44.0773H44.1173C44.1573 23.9084 44.1973 23.9084 44.1973 23.9084C44.2773 23.9084 44.3173 23.9084 44.3573 23.8684C44.3973 23.8684 44.3973 23.8684 44.3973 23.8284H44.4373C44.4773 23.7884 44.5173 23.7484 44.5573 23.7084C44.5573 23.7084 44.5973 23.7084 44.5973 23.6684C44.6373 23.6284 44.6373 23.5884 44.6773 23.5084V23.4684V23.4284L49.1973 10.0284V34.6284C49.1573 34.9484 49.4373 35.2284 49.7573 35.2284C50.0773 35.2684 50.3973 34.9484 50.3973 34.6284V6.38836C50.3973 6.34836 50.3973 6.30836 50.3973 6.26836C50.3573 6.02836 50.1973 5.82836 49.9973 5.74836C49.7973 5.66836 49.5173 5.70836 49.3573 5.86836C49.3573 5.90836 49.3173 5.90836 49.3173 5.90836C49.3173 5.94836 49.3173 5.94836 49.2773 5.98836C49.2773 5.98836 49.2773 5.98836 49.2773 6.02836C49.2373 6.02836 49.2373 6.02836 49.2373 6.06836C49.2373 6.10836 49.1973 6.10836 49.1973 6.14836L44.0773 21.4284L38.9973 6.26836C38.9973 6.18836 38.9973 6.14836 38.9973 6.10836C38.8773 5.86836 38.6373 5.70836 38.3573 5.70836ZM54.4929 35.2284H65.8129C66.1329 35.2684 66.4129 34.9484 66.4129 34.6284C66.4129 34.3484 66.1329 34.0284 65.8129 34.0284H60.7729V6.90836H65.8129C66.1329 6.94836 66.4129 6.62836 66.4129 6.30836C66.4129 6.02836 66.1329 5.70836 65.8129 5.70836H54.4929C54.4929 5.70836 54.4529 5.70836 54.4129 5.70836C54.0929 5.70836 53.8129 5.98836 53.8129 6.30836C53.7729 6.62836 54.0529 6.90836 54.3729 6.90836C54.4129 6.94836 54.4529 6.94836 54.4929 6.90836H59.5729V34.0284H54.4929C54.1729 34.0284 53.8929 34.3084 53.8929 34.6284C53.8529 34.9484 54.1329 35.2284 54.4529 35.2284H54.4929ZM70.4286 5.70836C70.3886 5.70836 70.3886 5.70836 70.3886 5.70836C70.3086 5.74836 70.2286 5.74836 70.1486 5.78836C70.1486 5.78836 70.1486 5.78836 70.1486 5.82836C70.1086 5.82836 70.0686 5.86836 70.0686 5.86836C70.0286 5.90836 70.0286 5.90836 70.0286 5.90836C69.9886 5.94836 69.9886 5.94836 69.9886 5.98836C69.9486 5.98836 69.9486 5.98836 69.9486 6.02836L69.9086 6.06836C69.9086 6.10836 69.9086 6.10836 69.9086 6.10836C69.9086 6.14836 69.9086 6.14836 69.9086 6.18836C69.8686 6.18836 69.8686 6.18836 69.8686 6.18836C69.8686 6.22836 69.8686 6.22836 69.8686 6.22836V6.26836C69.8686 6.26836 69.8686 6.26836 69.8686 6.30836C69.8686 6.34836 69.8686 6.34836 69.8686 6.34836V34.6284C69.8686 34.9484 70.1486 35.2284 70.4686 35.2284C70.7886 35.2684 71.0686 34.9484 71.0686 34.6284V9.42836L81.1886 34.7884C81.2286 34.8284 81.2286 34.8284 81.2286 34.8684C81.2286 34.8684 81.2286 34.8684 81.2686 34.9084V34.9484C81.2686 34.9884 81.3086 34.9884 81.3086 34.9884C81.3086 35.0284 81.3086 35.0284 81.3086 35.0284H81.3486V35.0684C81.3486 35.0684 81.3886 35.0684 81.3886 35.1084C81.4286 35.1084 81.4286 35.1084 81.4286 35.1084L81.4686 35.1484V35.1884H81.5086C81.5086 35.1884 81.5086 35.1884 81.5486 35.1884L81.5886 35.2284C81.6286 35.2284 81.6286 35.2284 81.6686 35.2284H81.7086H81.7886C81.8686 35.2684 81.9486 35.2284 82.0286 35.1884H82.0686L82.1086 35.1484C82.1486 35.1484 82.1486 35.1484 82.1886 35.1084C82.1886 35.1084 82.1886 35.1084 82.2286 35.0684L82.2686 35.0284C82.2686 35.0284 82.2686 35.0284 82.2686 34.9884H82.3086C82.3086 34.9484 82.3086 34.9484 82.3086 34.9484C82.3086 34.9484 82.3086 34.9484 82.3086 34.9084C82.3486 34.9084 82.3486 34.9084 82.3486 34.8684L82.3886 34.8284V34.7884C82.3886 34.7484 82.3886 34.7484 82.3886 34.7084C82.3886 34.6684 82.3886 34.6684 82.3886 34.6684C82.3886 34.6284 82.3886 34.6284 82.3886 34.5884V6.30836C82.3886 5.98836 82.1086 5.70836 81.7886 5.70836C81.4686 5.70836 81.1886 5.98836 81.1886 6.30836V31.5084L71.0686 6.14836C71.0286 6.14836 71.0286 6.10836 71.0286 6.10836V6.06836C70.9886 6.02836 70.9886 5.98836 70.9486 5.98836C70.9486 5.90836 70.9086 5.86836 70.8686 5.86836C70.8686 5.82836 70.8286 5.82836 70.8286 5.82836C70.7086 5.74836 70.5486 5.70836 70.4286 5.70836ZM91.8442 5.70836C88.5242 5.90836 85.9242 8.58836 85.8842 11.9484V11.9884V12.0284V28.9484V28.9884V29.0284C85.9242 32.4684 88.6842 35.2284 92.1642 35.2284C95.6042 35.2284 98.3642 32.4684 98.4042 29.0684V28.9884C98.4042 28.9884 98.4042 28.9484 98.4042 28.9084V12.0684V11.9884C98.4042 11.9884 98.4042 11.9484 98.4042 11.9084C98.3642 8.46836 95.5642 5.70836 92.1642 5.70836C92.0442 5.70836 91.9242 5.70836 91.8442 5.70836ZM92.1642 6.90836C94.9642 6.90836 97.2042 9.14836 97.2042 11.9884V28.9884C97.2042 31.7884 94.9642 34.0284 92.1642 34.0284C89.3242 34.0284 87.1242 31.8284 87.0842 29.0684C87.0842 29.0284 87.0842 29.0284 87.0842 28.9884V12.0684C87.0842 12.0284 87.0842 12.0284 87.0842 11.9884C87.1242 9.14836 89.3242 6.90836 92.1642 6.90836ZM102.42 5.66836C102.14 5.70836 101.86 5.98836 101.86 6.26836V28.9084V28.9484V29.0284C101.9 32.4284 104.74 35.2284 108.14 35.2284C111.58 35.2284 114.42 32.4284 114.46 29.0284V28.9484V28.9084V6.26836C114.46 5.98836 114.14 5.66836 113.86 5.66836C113.54 5.66836 113.22 5.98836 113.26 6.26836V28.9484C113.22 28.9884 113.22 28.9884 113.26 28.9884C113.22 31.7884 110.94 34.0284 108.14 34.0284C105.38 34.0284 103.06 31.7484 103.06 28.9484C103.1 28.9484 103.1 28.9484 103.06 28.9084V6.26836C103.1 5.94836 102.78 5.66836 102.42 5.66836ZM123.875 5.70836C120.555 5.86836 117.955 8.58836 117.915 11.9084V11.9884V12.0284V17.5884V17.6284V17.7084C117.955 21.1084 120.715 23.9084 124.195 23.9084C124.515 23.9084 124.795 23.5884 124.795 23.3084C124.795 22.9884 124.515 22.6684 124.195 22.7084C121.355 22.7084 119.155 20.4684 119.115 17.7084C119.115 17.7084 119.115 17.6684 119.115 17.6284V11.9884C119.115 11.9484 119.115 11.9484 119.115 11.9084C119.155 9.14836 121.355 6.90836 124.195 6.90836C126.995 6.90836 129.235 9.18836 129.235 11.9884C129.235 12.2684 129.515 12.5884 129.835 12.5884C130.155 12.5884 130.435 12.2684 130.435 11.9884C130.435 8.50836 127.635 5.70836 124.195 5.70836C124.075 5.70836 123.995 5.66836 123.875 5.70836ZM124.075 17.0284C123.795 17.0684 123.515 17.3884 123.555 17.7084C123.555 18.0284 123.875 18.2684 124.195 18.2284C126.995 18.2284 129.235 20.5084 129.235 23.3084V23.3484V28.9084V28.9884C129.235 31.7884 126.995 34.0284 124.195 34.0284C121.355 34.0284 119.115 31.7484 119.115 28.9884C119.115 28.6684 118.835 28.3484 118.515 28.3484C118.195 28.3484 117.915 28.6684 117.915 28.9884C117.915 32.4284 120.715 35.2284 124.195 35.2284C127.635 35.2284 130.395 32.4684 130.435 29.0284V28.9884C130.435 28.9484 130.435 28.9084 130.435 28.8684V23.3484V23.3084V23.2284V23.1884C130.355 19.7884 127.595 17.0284 124.195 17.0284C124.155 17.0284 124.115 17.0284 124.075 17.0284Z" fill="white"/>
</g>
<g filter="url(#filter1_d)">
<path d="M1.14 45.695C0.98 45.715 0.86 45.855 0.86 45.995V60.055C0.82 60.195 0.86 60.335 0.98 60.415C1 60.415 1 60.415 1 60.435C1.02 60.435 1.04 60.435 1.06 60.455C1.1 60.455 1.12 60.455 1.16 60.455C1.18 60.475 1.2 60.455 1.22 60.455H6.84C7 60.455 7.14 60.315 7.14 60.155C7.14 59.995 7 59.855 6.84 59.855H1.46V45.995C1.46 45.835 1.3 45.675 1.14 45.695ZM8.86781 46.135V60.055C8.82781 60.215 8.90781 60.375 9.04781 60.435C9.04781 60.435 9.04781 60.435 9.04781 60.455C9.06781 60.455 9.06781 60.455 9.06781 60.455H9.08781C9.10781 60.455 9.12781 60.475 9.16781 60.475C9.18781 60.475 9.20781 60.475 9.22781 60.455H14.8478C15.0078 60.475 15.1478 60.315 15.1478 60.155C15.1478 60.015 15.0078 59.855 14.8478 59.855H9.46781V54.815H12.0078C12.1678 54.815 12.3078 54.655 12.3078 54.515C12.3078 54.355 12.1678 54.195 12.0078 54.215H9.46781V46.315H14.8478C15.0078 46.315 15.1478 46.155 15.1478 46.015C15.1478 45.855 15.0078 45.695 14.8478 45.715H9.22781C9.20781 45.695 9.18781 45.695 9.14781 45.695H9.12781C8.92781 45.715 8.78781 45.955 8.86781 46.135ZM17.1356 45.695C16.9556 45.715 16.7956 45.955 16.8956 46.135V60.075C16.8356 60.215 16.9156 60.375 17.0556 60.435V60.455H17.0756C17.0756 60.455 17.0756 60.455 17.0956 60.455C17.1156 60.455 17.1556 60.475 17.1756 60.475C17.1956 60.475 17.2156 60.475 17.2356 60.455H20.0356C20.0356 60.455 20.0356 60.475 20.0556 60.455C21.7556 60.455 23.1356 59.075 23.1556 57.375C23.1556 57.355 23.1556 57.355 23.1556 57.355C23.1556 57.335 23.1556 57.315 23.1556 57.295V48.875C23.1556 48.855 23.1556 48.855 23.1556 48.855V48.835C23.1556 48.815 23.1556 48.795 23.1556 48.795C23.1156 47.095 21.7556 45.715 20.0556 45.715C20.0556 45.695 20.0356 45.695 20.0356 45.715H17.2556C17.2356 45.695 17.1956 45.695 17.1756 45.695H17.1556H17.1356ZM17.4956 46.315H20.0356C21.4356 46.315 22.5556 47.435 22.5556 48.855V57.355C22.5356 58.755 21.4156 59.875 20.0356 59.875H17.4956V46.315ZM3.84 64.695C2.18 64.775 0.88 66.135 0.86 67.795V67.835V67.855V70.635V70.655V70.695C0.88 72.395 2.26 73.795 4 73.795C4.16 73.795 4.3 73.635 4.3 73.495C4.3 73.335 4.16 73.175 4 73.195C2.58 73.195 1.48 72.075 1.46 70.695C1.46 70.695 1.46 70.675 1.46 70.655V67.835C1.46 67.815 1.46 67.815 1.46 67.795C1.48 66.415 2.58 65.295 4 65.295C5.4 65.295 6.52 66.435 6.52 67.835C6.52 67.975 6.66 68.135 6.82 68.135C6.98 68.135 7.12 67.975 7.12 67.835C7.12 66.095 5.72 64.695 4 64.695C3.94 64.695 3.9 64.675 3.84 64.695ZM3.94 70.355C3.8 70.375 3.66 70.535 3.68 70.695C3.68 70.855 3.84 70.975 4 70.955C5.4 70.955 6.52 72.095 6.52 73.495V73.515V76.295V76.335C6.52 77.735 5.4 78.855 4 78.855C2.58 78.855 1.46 77.715 1.46 76.335C1.46 76.175 1.32 76.015 1.16 76.015C1 76.015 0.86 76.175 0.86 76.335C0.86 78.055 2.26 79.455 4 79.455C5.72 79.455 7.1 78.075 7.12 76.355V76.335C7.12 76.315 7.12 76.295 7.12 76.275V73.515V73.495V73.455V73.435C7.08 71.735 5.7 70.355 4 70.355C3.98 70.355 3.96 70.355 3.94 70.355ZM9.14781 64.695C9.00781 64.715 8.88781 64.855 8.88781 64.995V73.355C8.84781 73.455 8.84781 73.555 8.88781 73.635V79.155C8.88781 79.315 9.02781 79.455 9.18781 79.455C9.34781 79.455 9.48781 79.315 9.48781 79.155V73.795H14.5478V79.155C14.5478 79.315 14.6878 79.455 14.8278 79.455C14.9878 79.475 15.1478 79.315 15.1478 79.155V73.535C15.1478 73.495 15.1478 73.475 15.1478 73.435V64.995C15.1478 64.835 15.0078 64.695 14.8478 64.695C14.6878 64.695 14.5478 64.835 14.5478 64.995V73.195H9.48781V64.995C9.48781 64.835 9.32781 64.675 9.14781 64.695ZM19.8556 64.695C18.1956 64.795 16.8956 66.135 16.8756 67.815V67.835V67.855V76.315V76.335V76.355C16.8956 78.075 18.2756 79.455 20.0156 79.455C21.7356 79.455 23.1156 78.075 23.1356 76.375V76.335C23.1356 76.335 23.1356 76.315 23.1356 76.295V67.875V67.835C23.1356 67.835 23.1356 67.815 23.1356 67.795C23.1156 66.075 21.7156 64.695 20.0156 64.695C19.9556 64.695 19.8956 64.695 19.8556 64.695ZM20.0156 65.295C21.4156 65.295 22.5356 66.415 22.5356 67.835V76.335C22.5356 77.735 21.4156 78.855 20.0156 78.855C18.5956 78.855 17.4956 77.755 17.4756 76.375C17.4756 76.355 17.4756 76.355 17.4756 76.335V67.875C17.4756 67.855 17.4756 67.855 17.4756 67.835C17.4956 66.415 18.5956 65.295 20.0156 65.295ZM25.1434 64.715C25.0034 64.735 24.8834 64.875 24.8834 65.015V79.175V79.195V79.215V79.235V79.255C24.8834 79.275 24.8834 79.275 24.8834 79.275C24.8834 79.295 24.9034 79.295 24.9034 79.295C24.9034 79.315 24.9034 79.315 24.9034 79.335C24.9234 79.335 24.9234 79.355 24.9234 79.355C24.9234 79.375 24.9434 79.375 24.9434 79.375C24.9434 79.375 24.9434 79.375 24.9434 79.395C24.9434 79.395 24.9434 79.395 24.9634 79.395V79.415C24.9634 79.415 24.9634 79.415 24.9834 79.415V79.435H25.0034C25.0034 79.455 25.0234 79.455 25.0434 79.455C25.0434 79.475 25.0434 79.475 25.0434 79.475C25.0634 79.475 25.0634 79.475 25.0634 79.475C25.0634 79.475 25.0634 79.475 25.0834 79.475L25.1034 79.495C25.1234 79.495 25.1234 79.495 25.1434 79.495H25.1634H25.1834C25.2234 79.495 25.2834 79.495 25.3234 79.455C25.3434 79.455 25.3434 79.455 25.3634 79.435C25.3834 79.415 25.4034 79.415 25.4034 79.395C25.4234 79.375 25.4234 79.375 25.4234 79.375C25.4434 79.355 25.4434 79.355 25.4434 79.335L25.4634 79.315C25.4634 79.295 25.4634 79.275 25.4834 79.255L28.0034 71.635L30.5434 79.295C30.5634 79.295 30.5634 79.295 30.5634 79.295C30.5634 79.315 30.5634 79.335 30.5834 79.335C30.5834 79.355 30.6034 79.395 30.6234 79.395C30.6234 79.415 30.6234 79.415 30.6234 79.415C30.6434 79.415 30.6434 79.415 30.6434 79.435H30.6634C30.6834 79.455 30.7234 79.475 30.7434 79.495H30.7634C30.7634 79.495 30.7634 79.495 30.7834 79.495H30.8034H30.8234H30.8434C30.8834 79.495 30.9034 79.495 30.9234 79.495C30.9434 79.495 30.9634 79.475 30.9634 79.475C30.9834 79.475 30.9834 79.475 30.9834 79.455H31.0034C31.0234 79.455 31.0234 79.455 31.0234 79.455C31.0434 79.435 31.0634 79.415 31.0834 79.395C31.1034 79.375 31.1034 79.335 31.1234 79.315C31.1234 79.295 31.1234 79.295 31.1234 79.295C31.1434 79.235 31.1434 79.195 31.1434 79.155V65.015C31.1434 64.855 31.0034 64.715 30.8434 64.715C30.6834 64.715 30.5434 64.855 30.5434 65.015V77.335L28.3034 70.655C28.3034 70.575 28.2634 70.515 28.2234 70.475C28.2034 70.455 28.1634 70.415 28.1234 70.415C28.1234 70.395 28.1034 70.395 28.1034 70.395C28.1034 70.395 28.1034 70.395 28.0834 70.395C28.0834 70.395 28.0834 70.395 28.0634 70.395C28.0434 70.375 28.0234 70.375 28.0034 70.375C27.9634 70.375 27.9434 70.375 27.9034 70.395H27.8834C27.7834 70.435 27.7034 70.555 27.7034 70.655V70.675L25.4834 77.335V65.015C25.4834 64.855 25.3234 64.695 25.1434 64.715Z" fill="url(#paint0_linear)"/>
</g>
<g filter="url(#filter2_d)">
<path d="M0.0120569 0.00921186L0.0121974 -0.490788L-0.48788 -0.490751L-0.487943 0.00932719L0.0120569 0.00921186ZM10.8606 0.00839377L10.8604 0.508394L10.8606 0.00839377ZM22.0515 0.361096C22.2468 0.16582 22.2469 -0.150764 22.0517 -0.346011L18.8706 -3.52775C18.6754 -3.72299 18.3588 -3.72297 18.1635 -3.5277C17.9682 -3.33242 17.9681 -3.01583 18.1633 -2.82059L20.9909 0.00762436L18.1617 2.83627C17.9664 3.03154 17.9663 3.34812 18.1615 3.54337C18.3567 3.73862 18.6733 3.73859 18.8686 3.54332L22.0515 0.361096ZM0.509905 17.0956L0.512057 0.00909654L-0.487943 0.00932719L-0.490095 17.0958L0.509905 17.0956ZM0.0119164 0.509212L10.8604 0.508394L10.8607 -0.491606L0.0121974 -0.490788L0.0119164 0.509212ZM10.8604 0.508394L21.6979 0.50757L21.6982 -0.49243L10.8607 -0.491606L10.8604 0.508394Z" fill="white"/>
</g>
<g filter="url(#filter3_d)">
<path d="M39.0145 46.975C38.7345 47.015 38.4945 47.295 38.4945 47.575V75.895V75.935V75.975V76.015V76.055C38.4945 76.095 38.4945 76.095 38.4945 76.095C38.4945 76.135 38.5345 76.135 38.5345 76.135C38.5345 76.175 38.5345 76.175 38.5345 76.215C38.5745 76.215 38.5745 76.255 38.5745 76.255C38.5745 76.295 38.6145 76.295 38.6145 76.295C38.6145 76.295 38.6145 76.295 38.6145 76.335C38.6145 76.335 38.6145 76.335 38.6545 76.335V76.375C38.6545 76.375 38.6545 76.375 38.6945 76.375V76.415H38.7345C38.7345 76.455 38.7745 76.455 38.8145 76.455C38.8145 76.495 38.8145 76.495 38.8145 76.495C38.8545 76.495 38.8545 76.495 38.8545 76.495C38.8545 76.495 38.8545 76.495 38.8945 76.495L38.9345 76.535C38.9745 76.535 38.9745 76.535 39.0145 76.535H39.0545H39.0945C39.1745 76.535 39.2945 76.535 39.3745 76.455C39.4145 76.455 39.4145 76.455 39.4545 76.415C39.4945 76.375 39.5345 76.375 39.5345 76.335C39.5745 76.295 39.5745 76.295 39.5745 76.295C39.6145 76.255 39.6145 76.255 39.6145 76.215L39.6545 76.175C39.6545 76.135 39.6545 76.095 39.6945 76.055L44.7345 60.815L49.8145 76.135C49.8545 76.135 49.8545 76.135 49.8545 76.135C49.8545 76.175 49.8545 76.215 49.8945 76.215C49.8945 76.255 49.9345 76.335 49.9745 76.335C49.9745 76.375 49.9745 76.375 49.9745 76.375C50.0145 76.375 50.0145 76.375 50.0145 76.415H50.0545C50.0945 76.455 50.1745 76.495 50.2145 76.535H50.2545C50.2545 76.535 50.2545 76.535 50.2945 76.535H50.3345H50.3745H50.4145C50.4945 76.535 50.5345 76.535 50.5745 76.535C50.6145 76.535 50.6545 76.495 50.6545 76.495C50.6945 76.495 50.6945 76.495 50.6945 76.455H50.7345C50.7745 76.455 50.7745 76.455 50.7745 76.455C50.8145 76.415 50.8545 76.375 50.8945 76.335C50.9345 76.295 50.9345 76.215 50.9745 76.175C50.9745 76.135 50.9745 76.135 50.9745 76.135C51.0145 76.015 51.0145 75.935 51.0145 75.855V47.575C51.0145 47.255 50.7345 46.975 50.4145 46.975C50.0945 46.975 49.8145 47.255 49.8145 47.575V72.215L45.3345 58.855C45.3345 58.695 45.2545 58.575 45.1745 58.495C45.1345 58.455 45.0545 58.375 44.9745 58.375C44.9745 58.335 44.9345 58.335 44.9345 58.335C44.9345 58.335 44.9345 58.335 44.8945 58.335C44.8945 58.335 44.8945 58.335 44.8545 58.335C44.8145 58.295 44.7745 58.295 44.7345 58.295C44.6545 58.295 44.6145 58.295 44.5345 58.335H44.4945C44.2945 58.415 44.1345 58.655 44.1345 58.855V58.895L39.6945 72.215V47.575C39.6945 47.255 39.3745 46.935 39.0145 46.975ZM55.1501 76.455H66.4701C66.7901 76.495 67.0701 76.175 67.0701 75.855C67.0701 75.575 66.7901 75.255 66.4701 75.255H61.4301V48.135H66.4701C66.7901 48.175 67.0701 47.855 67.0701 47.535C67.0701 47.255 66.7901 46.935 66.4701 46.935H55.1501C55.1501 46.935 55.1101 46.935 55.0701 46.935C54.7501 46.935 54.4701 47.215 54.4701 47.535C54.4301 47.855 54.7101 48.135 55.0301 48.135C55.0701 48.175 55.1101 48.175 55.1501 48.135H60.2301V75.255H55.1501C54.8301 75.255 54.5501 75.535 54.5501 75.855C54.5101 76.175 54.7901 76.455 55.1101 76.455H55.1501ZM82.4457 46.855C82.4057 46.855 82.3257 46.895 82.2857 46.895H71.1657C70.8457 46.855 70.5257 47.135 70.4857 47.455C70.4457 47.775 70.7257 48.095 71.0457 48.095C71.0857 48.095 71.1257 48.095 71.1657 48.095H81.6057L70.6457 75.495C70.4857 75.735 70.4857 76.095 70.7257 76.295C70.7657 76.335 70.8057 76.375 70.8857 76.415C70.8857 76.415 70.8857 76.415 70.9257 76.415C70.9657 76.455 71.0457 76.455 71.0857 76.455C71.1657 76.495 71.2057 76.495 71.2857 76.455H82.4857C82.8057 76.455 83.0857 76.175 83.0857 75.855C83.0857 75.535 82.8057 75.255 82.4857 75.255H72.0457L83.0057 47.815C83.0057 47.775 83.0457 47.735 83.0457 47.735C83.2457 47.335 82.8857 46.815 82.4457 46.855ZM99.1014 75.855V53.295C99.1014 53.255 99.1014 53.255 99.1014 53.215V53.175C99.1014 53.175 99.1014 53.135 99.1014 53.095C99.0614 49.695 96.2614 46.975 92.8614 46.935H92.8214C92.7014 46.935 92.6214 46.935 92.5014 46.935C89.2214 47.095 86.5814 49.815 86.5414 53.135V53.175V53.215V53.255V75.855C86.5414 76.175 86.8214 76.455 87.1414 76.455C87.4614 76.495 87.7414 76.175 87.7414 75.855V65.135H97.9014V75.855C97.9014 76.175 98.1814 76.455 98.5014 76.455C98.8214 76.495 99.1014 76.175 99.1014 75.855ZM92.8214 48.135C95.6214 48.135 97.9014 50.375 97.9014 53.215V53.255V63.935H87.7414V53.295C87.7414 53.255 87.7414 53.255 87.7414 53.215V53.175C87.7814 50.375 90.0614 48.135 92.8214 48.135ZM103.117 46.895C102.797 46.935 102.557 47.215 102.557 47.495V53.175C102.557 53.215 102.557 53.215 102.557 53.215V58.815V58.855V75.855C102.557 76.175 102.797 76.455 103.077 76.455C103.437 76.495 103.757 76.215 103.757 75.855V62.535C104.877 64.095 106.717 65.095 108.797 65.095C109.277 65.095 109.757 65.055 110.197 64.935L113.917 76.055C113.957 76.255 114.197 76.455 114.437 76.455C114.837 76.495 115.157 76.055 115.037 75.655L111.317 64.575C113.517 63.615 115.037 61.455 115.077 58.935V58.855C115.077 58.815 115.077 58.815 115.077 58.775V53.255V53.175V53.135C115.077 53.135 115.077 53.095 115.077 53.055C115.037 49.695 112.237 46.895 108.797 46.895C106.717 46.895 104.877 47.935 103.757 49.495V47.495C103.757 47.175 103.437 46.855 103.117 46.895ZM108.797 48.095C111.637 48.095 113.877 50.375 113.877 53.175C113.877 53.215 113.877 53.215 113.877 53.215V58.855C113.877 58.895 113.877 58.895 113.877 58.895C113.877 60.935 112.677 62.615 110.957 63.415L109.357 58.655C109.277 58.375 108.917 58.175 108.597 58.255C108.277 58.375 108.117 58.735 108.237 59.055L109.797 63.815C109.477 63.855 109.157 63.895 108.797 63.895C105.997 63.895 103.757 61.655 103.757 58.855V58.815V53.175C103.757 50.375 105.997 48.095 108.797 48.095ZM119.093 46.935C118.733 46.975 118.413 47.455 118.613 47.815V75.695C118.493 75.975 118.653 76.295 118.933 76.415V76.455H118.973C118.973 76.455 118.973 76.455 119.013 76.455C119.053 76.455 119.133 76.495 119.173 76.495C119.213 76.495 119.253 76.495 119.293 76.455H124.893C124.893 76.455 124.893 76.495 124.933 76.455C128.333 76.455 131.093 73.695 131.133 70.295C131.133 70.255 131.133 70.255 131.133 70.255C131.133 70.215 131.133 70.175 131.133 70.135V53.295C131.133 53.255 131.133 53.255 131.133 53.255V53.215C131.133 53.175 131.133 53.135 131.133 53.135C131.053 49.735 128.333 46.975 124.933 46.975C124.933 46.935 124.893 46.935 124.893 46.975H119.333C119.293 46.935 119.213 46.935 119.173 46.935H119.133H119.093ZM119.813 48.175H124.893C127.693 48.175 129.933 50.415 129.933 53.255V70.255C129.893 73.055 127.653 75.295 124.893 75.295H119.813V48.175ZM140.548 46.935C137.228 47.095 134.628 49.815 134.588 53.135V53.215V53.255V58.815V58.855V58.935C134.628 62.335 137.388 65.135 140.868 65.135C141.188 65.135 141.468 64.815 141.468 64.535C141.468 64.215 141.188 63.895 140.868 63.935C138.028 63.935 135.828 61.695 135.788 58.935C135.788 58.935 135.788 58.895 135.788 58.855V53.215C135.788 53.175 135.788 53.175 135.788 53.135C135.828 50.375 138.028 48.135 140.868 48.135C143.668 48.135 145.908 50.415 145.908 53.215C145.908 53.495 146.188 53.815 146.508 53.815C146.828 53.815 147.108 53.495 147.108 53.215C147.108 49.735 144.308 46.935 140.868 46.935C140.748 46.935 140.668 46.895 140.548 46.935ZM140.748 58.255C140.468 58.295 140.188 58.615 140.228 58.935C140.228 59.255 140.548 59.495 140.868 59.455C143.668 59.455 145.908 61.735 145.908 64.535V64.575V70.135V70.215C145.908 73.015 143.668 75.255 140.868 75.255C138.028 75.255 135.788 72.975 135.788 70.215C135.788 69.895 135.508 69.575 135.188 69.575C134.868 69.575 134.588 69.895 134.588 70.215C134.588 73.655 137.388 76.455 140.868 76.455C144.308 76.455 147.068 73.695 147.108 70.255V70.215C147.108 70.175 147.108 70.135 147.108 70.095V64.575V64.535V64.455V64.415C147.028 61.015 144.268 58.255 140.868 58.255C140.828 58.255 140.788 58.255 140.748 58.255Z" fill="white"/>
</g>
<g filter="url(#filter4_d)">
<path d="M152.44 86.9337L152.437 87.4337L152.937 87.4353L152.94 86.9352L152.44 86.9337ZM141.591 86.8987L141.593 86.3987L141.591 86.8987ZM130.402 86.509C130.206 86.7036 130.204 87.0202 130.399 87.2161L133.566 90.4083C133.76 90.6042 134.077 90.6052 134.273 90.4106C134.469 90.216 134.471 89.8994 134.276 89.7035L131.461 86.866L134.302 84.0467C134.498 83.8521 134.5 83.5355 134.305 83.3396C134.111 83.1437 133.794 83.1427 133.598 83.3373L130.402 86.509ZM152.015 69.8458L151.94 86.9321L152.94 86.9352L153.015 69.8489L152.015 69.8458ZM152.442 86.4337L141.593 86.3987L141.589 87.3987L152.437 87.4337L152.442 86.4337ZM141.593 86.3987L130.756 86.3637L130.752 87.3637L141.589 87.3987L141.593 86.3987Z" fill="white"/>
</g>
<defs>
<filter id="filter0_d" x="2.77606" y="2.66837" width="130.659" height="35.5778" filterUnits="userSpaceOnUse" color-interpolation-filters="sRGB">
<feFlood flood-opacity="0" result="BackgroundImageFix"/>
<feColorMatrix in="SourceAlpha" type="matrix" values="0 0 0 0 0 0 0 0 0 0 0 0 0 0 0 0 0 0 127 0"/>
<feOffset/>
<feGaussianBlur stdDeviation="1.5"/>
<feColorMatrix type="matrix" values="0 0 0 0 1 0 0 0 0 0.977833 0 0 0 0 0.445833 0 0 0 1 0"/>
<feBlend mode="normal" in2="BackgroundImageFix" result="effect1_dropShadow"/>
<feBlend mode="normal" in="SourceGraphic" in2="effect1_dropShadow" result="shape"/>
</filter>
<filter id="filter1_d" x="-1.15503" y="43.6934" width="34.2984" height="37.8017" filterUnits="userSpaceOnUse" color-interpolation-filters="sRGB">
<feFlood flood-opacity="0" result="BackgroundImageFix"/>
<feColorMatrix in="SourceAlpha" type="matrix" values="0 0 0 0 0 0 0 0 0 0 0 0 0 0 0 0 0 0 127 0"/>
<feOffset/>
<feGaussianBlur stdDeviation="1"/>
<feColorMatrix type="matrix" values="0 0 0 0 0.799015 0 0 0 0 0.574167 0 0 0 0 0.883333 0 0 0 1 0"/>
<feBlend mode="normal" in2="BackgroundImageFix" result="effect1_dropShadow"/>
<feBlend mode="normal" in="SourceGraphic" in2="effect1_dropShadow" result="shape"/>
</filter>
<filter id="filter2_d" x="-3.49011" y="-6.67416" width="28.6881" height="26.77" filterUnits="userSpaceOnUse" color-interpolation-filters="sRGB">
<feFlood flood-opacity="0" result="BackgroundImageFix"/>
<feColorMatrix in="SourceAlpha" type="matrix" values="0 0 0 0 0 0 0 0 0 0 0 0 0 0 0 0 0 0 127 0"/>
<feOffset/>
<feGaussianBlur stdDeviation="1.5"/>
<feColorMatrix type="matrix" values="0 0 0 0 1 0 0 0 0 0.977833 0 0 0 0 0.445833 0 0 0 1 0"/>
<feBlend mode="normal" in2="BackgroundImageFix" result="effect1_dropShadow"/>
<feBlend mode="normal" in="SourceGraphic" in2="effect1_dropShadow" result="shape"/>
</filter>
<filter id="filter3_d" x="35.4944" y="43.8529" width="114.614" height="35.6822" filterUnits="userSpaceOnUse" color-interpolation-filters="sRGB">
<feFlood flood-opacity="0" result="BackgroundImageFix"/>
<feColorMatrix in="SourceAlpha" type="matrix" values="0 0 0 0 0 0 0 0 0 0 0 0 0 0 0 0 0 0 127 0"/>
<feOffset/>
<feGaussianBlur stdDeviation="1.5"/>
<feColorMatrix type="matrix" values="0 0 0 0 1 0 0 0 0 0.977833 0 0 0 0 0.445833 0 0 0 1 0"/>
<feBlend mode="normal" in2="BackgroundImageFix" result="effect1_dropShadow"/>
<feBlend mode="normal" in="SourceGraphic" in2="effect1_dropShadow" result="shape"/>
</filter>
<filter id="filter4_d" x="127.254" y="66.8458" width="28.7611" height="26.7101" filterUnits="userSpaceOnUse" color-interpolation-filters="sRGB">
<feFlood flood-opacity="0" result="BackgroundImageFix"/>
<feColorMatrix in="SourceAlpha" type="matrix" values="0 0 0 0 0 0 0 0 0 0 0 0 0 0 0 0 0 0 127 0"/>
<feOffset/>
<feGaussianBlur stdDeviation="1.5"/>
<feColorMatrix type="matrix" values="0 0 0 0 1 0 0 0 0 0.977833 0 0 0 0 0.445833 0 0 0 1 0"/>
<feBlend mode="normal" in2="BackgroundImageFix" result="effect1_dropShadow"/>
<feBlend mode="normal" in="SourceGraphic" in2="effect1_dropShadow" result="shape"/>
</filter>
<linearGradient id="paint0_linear" x1="16.855" y1="45.455" x2="16.855" y2="85.6246" gradientUnits="userSpaceOnUse">
<stop offset="0.114583" stop-color="#9B51E0"/>
<stop offset="0.307292" stop-color="#2F80ED"/>
<stop offset="0.682292" stop-color="#EB5757"/>
<stop offset="1" stop-color="#F2C94C"/>
</linearGradient>
</defs>
</svg>
