<svg width="28" height="28" viewBox="0 0 28 28" fill="none" xmlns="http://www.w3.org/2000/svg">
<g filter="url(#filter0_d)">
<path d="M21.0711 6.92895C19.1823 5.0402 16.6711 4 14 4C11.3289 4 8.8177 5.04016 6.92891 6.92891C5.0402 8.8177 4 11.3289 4 14C4 16.6711 5.0402 19.1823 6.92891 21.0711C8.8177 22.9598 11.3289 24 14 24C16.6711 24 19.1823 22.9598 21.0711 21.0711C22.9598 19.1823 24 16.6711 24 14C24 11.3289 22.9598 8.8177 21.0711 6.92895ZM14 22.8281C9.13215 22.8281 5.17188 18.8679 5.17188 14C5.17188 9.13215 9.13215 5.17188 14 5.17188C18.8679 5.17188 22.8281 9.13215 22.8281 14C22.8281 18.8679 18.8679 22.8281 14 22.8281Z" fill="white"/>
<path d="M18.5232 15.346C18.2266 15.2163 17.8812 15.3517 17.7517 15.6483C17.0953 17.1505 15.6122 18.1211 13.9732 18.1211C11.7008 18.1211 9.85212 16.2724 9.85212 14C9.85212 11.7276 11.7008 9.87891 13.9732 9.87891C15.6027 9.87891 17.0824 10.8418 17.7428 12.3319C17.874 12.6277 18.2201 12.7614 18.5159 12.6302C18.8118 12.4991 18.9453 12.1529 18.8142 11.8571C17.9661 9.94348 16.0659 8.70703 13.9733 8.70703C11.0547 8.70703 8.68029 11.0814 8.68029 14C8.68029 16.9186 11.0547 19.293 13.9733 19.293C16.078 19.293 17.9826 18.0465 18.8255 16.1175C18.9551 15.821 18.8197 15.4755 18.5232 15.346Z" fill="white"/>
</g>
<defs>
<filter id="filter0_d" x="0" y="0" width="28" height="28" filterUnits="userSpaceOnUse" color-interpolation-filters="sRGB">
<feFlood flood-opacity="0" result="BackgroundImageFix"/>
<feColorMatrix in="SourceAlpha" type="matrix" values="0 0 0 0 0 0 0 0 0 0 0 0 0 0 0 0 0 0 127 0"/>
<feOffset/>
<feGaussianBlur stdDeviation="2"/>
<feColorMatrix type="matrix" values="0 0 0 0 1 0 0 0 0 0.977833 0 0 0 0 0.445833 0 0 0 1 0"/>
<feBlend mode="normal" in2="BackgroundImageFix" result="effect1_dropShadow"/>
<feBlend mode="normal" in="SourceGraphic" in2="effect1_dropShadow" result="shape"/>
</filter>
</defs>
</svg>
