<svg width="37" height="35" viewBox="0 0 37 35" fill="none" xmlns="http://www.w3.org/2000/svg">
<g filter="url(#filter0_d)">
<path d="M29.6016 4H7.39844C5.52454 4 4 5.4194 4 7.16406V27.8359C4 29.5806 5.52454 31 7.39844 31H29.6016C31.4755 31 33 29.5806 33 27.8359V7.16406C33 5.4194 31.4755 4 29.6016 4ZM30.7344 27.8359C30.7344 28.4175 30.2262 28.8906 29.6016 28.8906H23.1445V20.2949H26.6444L27.2227 17.0254H23.1445V14.7578C23.1445 13.8626 23.8823 13.1758 24.8438 13.1758H27.166V9.90625H24.8438C21.9594 9.90625 19.6341 12.0815 19.6341 14.767V17.0254H16.2344V20.2949H19.6341V28.8906H7.39844C6.7738 28.8906 6.26562 28.4175 6.26562 27.8359V7.16406C6.26562 6.58251 6.7738 6.10938 7.39844 6.10938H29.6016C30.2262 6.10938 30.7344 6.58251 30.7344 7.16406V27.8359Z" fill="white"/>
</g>
<defs>
<filter id="filter0_d" x="0" y="0" width="37" height="35" filterUnits="userSpaceOnUse" color-interpolation-filters="sRGB">
<feFlood flood-opacity="0" result="BackgroundImageFix"/>
<feColorMatrix in="SourceAlpha" type="matrix" values="0 0 0 0 0 0 0 0 0 0 0 0 0 0 0 0 0 0 127 0"/>
<feOffset/>
<feGaussianBlur stdDeviation="2"/>
<feColorMatrix type="matrix" values="0 0 0 0 1 0 0 0 0 0.977833 0 0 0 0 0.445833 0 0 0 1 0"/>
<feBlend mode="normal" in2="BackgroundImageFix" result="effect1_dropShadow"/>
<feBlend mode="normal" in="SourceGraphic" in2="effect1_dropShadow" result="shape"/>
</filter>
</defs>
</svg>
