<svg width="37" height="36" viewBox="0 0 37 36" fill="none" xmlns="http://www.w3.org/2000/svg">
<g clip-path="url(#clip0)" filter="url(#filter0_d)">
<path d="M32.9716 12.2321C32.9037 10.7443 32.6545 9.72152 32.2976 8.83523C31.9293 7.89447 31.3628 7.0522 30.6206 6.35202C29.8954 5.64095 29.0173 5.08841 28.0542 4.73843C27.131 4.39378 26.0772 4.1532 24.5363 4.0876C22.9839 4.01645 22.4911 4 18.5538 4C14.6165 4 14.1237 4.01645 12.577 4.08205C11.0362 4.14764 9.97682 4.38844 9.0591 4.73287C8.08452 5.08841 7.21217 5.63539 6.48699 6.35202C5.75051 7.0522 5.17847 7.90002 4.81576 8.82989C4.45881 9.72152 4.20963 10.7388 4.1417 12.2265C4.068 13.7254 4.05096 14.2012 4.05096 18.0027C4.05096 21.8043 4.068 22.2801 4.13594 23.7734C4.20388 25.2611 4.45328 26.284 4.81023 27.1702C5.17847 28.111 5.75051 28.9533 6.48699 29.6535C7.21217 30.3645 8.09027 30.9171 9.05335 31.267C9.97682 31.6117 11.0304 31.8523 12.5715 31.9179C14.1179 31.9837 14.611 31.9999 18.5483 31.9999C22.4855 31.9999 22.9784 31.9837 24.525 31.9179C26.0659 31.8523 27.1252 31.6117 28.0429 31.267C29.9919 30.5395 31.5328 29.0518 32.2863 27.1702C32.643 26.2786 32.8924 25.2611 32.9603 23.7734C33.0283 22.2801 33.0453 21.8043 33.0453 18.0027C33.0453 14.2012 33.0396 13.7254 32.9716 12.2321ZM30.3601 23.664C30.2977 25.0315 30.0598 25.7699 29.8615 26.2622C29.3743 27.482 28.3716 28.4501 27.1082 28.9206C26.5983 29.112 25.828 29.3417 24.4172 29.4018C22.8876 29.4676 22.4289 29.4838 18.5595 29.4838C14.6902 29.4838 14.2257 29.4676 12.7016 29.4018C11.2853 29.3417 10.5205 29.112 10.0107 28.9206C9.38197 28.6962 8.8097 28.3407 8.3452 27.8758C7.86367 27.4217 7.49543 26.8747 7.26307 26.2677C7.06479 25.7754 6.8269 25.0315 6.76471 23.6696C6.69655 22.1927 6.67973 21.7496 6.67973 18.0136C6.67973 14.2777 6.69655 13.8292 6.76471 12.3579C6.8269 10.9905 7.06479 10.252 7.26307 9.75976C7.49543 9.15253 7.86367 8.6002 8.35096 8.15151C8.82099 7.68657 9.38751 7.33103 10.0164 7.1069C10.5263 6.91546 11.2968 6.68577 12.7074 6.62551C14.237 6.55992 14.6959 6.54347 18.5651 6.54347C22.4402 6.54347 22.8989 6.55992 24.423 6.62551C25.8393 6.68577 26.6041 6.91546 27.1139 7.1069C27.7426 7.33103 28.3149 7.68657 28.7794 8.15151C29.261 8.60554 29.6292 9.15253 29.8615 9.75976C30.0598 10.252 30.2977 10.9958 30.3601 12.3579C30.4281 13.8348 30.4451 14.2777 30.4451 18.0136C30.4451 21.7496 30.4281 22.1871 30.3601 23.664Z" fill="white"/>
<path d="M18.5538 10.8101C14.441 10.8101 11.1041 14.0317 11.1041 18.0029C11.1041 21.974 14.441 25.1957 18.5538 25.1957C22.6668 25.1957 26.0035 21.974 26.0035 18.0029C26.0035 14.0317 22.6668 10.8101 18.5538 10.8101ZM18.5538 22.6687C15.8856 22.6687 13.7213 20.5792 13.7213 18.0029C13.7213 15.4265 15.8856 13.3371 18.5538 13.3371C21.2221 13.3371 23.3862 15.4265 23.3862 18.0029C23.3862 20.5792 21.2221 22.6687 18.5538 22.6687Z" fill="white"/>
<path d="M28.0374 10.5256C28.0374 11.4529 27.2587 12.2048 26.298 12.2048C25.3376 12.2048 24.5588 11.4529 24.5588 10.5256C24.5588 9.59811 25.3376 8.84644 26.298 8.84644C27.2587 8.84644 28.0374 9.59811 28.0374 10.5256Z" fill="white"/>
</g>
<defs>
<filter id="filter0_d" x="0" y="0" width="37" height="36" filterUnits="userSpaceOnUse" color-interpolation-filters="sRGB">
<feFlood flood-opacity="0" result="BackgroundImageFix"/>
<feColorMatrix in="SourceAlpha" type="matrix" values="0 0 0 0 0 0 0 0 0 0 0 0 0 0 0 0 0 0 127 0"/>
<feOffset/>
<feGaussianBlur stdDeviation="2"/>
<feColorMatrix type="matrix" values="0 0 0 0 1 0 0 0 0 0.977833 0 0 0 0 0.445833 0 0 0 1 0"/>
<feBlend mode="normal" in2="BackgroundImageFix" result="effect1_dropShadow"/>
<feBlend mode="normal" in="SourceGraphic" in2="effect1_dropShadow" result="shape"/>
</filter>
<clipPath id="clip0">
<rect width="29" height="28" fill="white" transform="translate(4 4)"/>
</clipPath>
</defs>
</svg>
