<svg width="276" height="145" viewBox="0 0 276 145" fill="none" xmlns="http://www.w3.org/2000/svg">
<g filter="url(#filter0_d)">
<path d="M17.172 18.7245C16.652 18.7895 16.262 19.2445 16.262 19.6995V65.3945C16.132 65.8495 16.262 66.3045 16.652 66.5645C16.717 66.5645 16.717 66.5645 16.717 66.6295C16.782 66.6295 16.847 66.6295 16.912 66.6945C17.042 66.6945 17.107 66.6945 17.237 66.6945C17.302 66.7595 17.367 66.6945 17.432 66.6945H35.697C36.217 66.6945 36.672 66.2395 36.672 65.7195C36.672 65.1995 36.217 64.7445 35.697 64.7445H18.212V19.6995C18.212 19.1795 17.692 18.6595 17.172 18.7245ZM43.1324 18.6595C42.6774 18.7245 42.2224 19.1795 42.2224 19.6345V56.4245V56.4895V56.6195C42.2874 62.1445 46.9024 66.6945 52.4274 66.6945C58.0174 66.6945 62.6324 62.1445 62.6974 56.6195V56.4895V56.4245V19.6345C62.6974 19.1795 62.1774 18.6595 61.7224 18.6595C61.2024 18.6595 60.6824 19.1795 60.7474 19.6345V56.4895C60.6824 56.5545 60.6824 56.5545 60.7474 56.5545C60.6824 61.1045 56.9774 64.7445 52.4274 64.7445C47.9424 64.7445 44.1724 61.0395 44.1724 56.4895C44.2374 56.4895 44.2374 56.4895 44.1724 56.4245V19.6345C44.2374 19.1145 43.7174 18.6595 43.1324 18.6595ZM69.1578 18.7245C69.0278 18.7245 68.8978 18.7895 68.7678 18.8545C68.7028 18.9195 68.7028 18.9195 68.6378 18.9845C68.5728 18.9845 68.5728 18.9845 68.5728 18.9845V19.0495C68.5078 19.0495 68.5078 19.0495 68.5078 19.1145C68.4428 19.1145 68.4428 19.1795 68.4428 19.1795C68.4428 19.2445 68.3778 19.2445 68.3778 19.2445V19.3095V19.3745C68.3128 19.3745 68.3128 19.3745 68.3128 19.4395C68.3128 19.5045 68.3128 19.5045 68.3128 19.5045C68.3128 19.5695 68.3128 19.5695 68.2478 19.6345V19.6995C68.2478 19.7645 68.2478 19.8295 68.2478 19.8295V65.7195C68.2478 66.2395 68.7028 66.6945 69.2228 66.6945C69.7428 66.7595 70.2628 66.2395 70.1978 65.7195V25.7445L77.4778 47.4545C77.5428 47.5845 77.5428 47.7145 77.6728 47.8445V47.9095C77.7378 47.9745 77.7378 48.0395 77.8028 48.1045H77.8678V48.1695H77.9328H77.9978C77.9978 48.2345 77.9978 48.2345 77.9978 48.2345C78.0628 48.2345 78.0628 48.2345 78.0628 48.2345H78.1278C78.1928 48.2995 78.2578 48.2995 78.3228 48.3645H78.3878H78.4528H78.5178C78.5828 48.2995 78.6478 48.2995 78.6478 48.2995C78.7778 48.2995 78.8428 48.2995 78.9078 48.2345C78.9728 48.2345 78.9728 48.2345 78.9728 48.1695H79.0378C79.1028 48.1045 79.1678 48.0395 79.2328 47.9745C79.2328 47.9745 79.2978 47.9745 79.2978 47.9095C79.3628 47.8445 79.3628 47.7795 79.4278 47.6495V47.5845V47.5195L86.7728 25.7445V65.7195C86.7078 66.2395 87.1628 66.6945 87.6828 66.6945C88.2028 66.7595 88.7228 66.2395 88.7228 65.7195V19.8295C88.7228 19.7645 88.7228 19.6995 88.7228 19.6345C88.6578 19.2445 88.3978 18.9195 88.0728 18.7895C87.7478 18.6595 87.2928 18.7245 87.0328 18.9845C87.0328 19.0495 86.9678 19.0495 86.9678 19.0495C86.9678 19.1145 86.9678 19.1145 86.9028 19.1795C86.9028 19.1795 86.9028 19.1795 86.9028 19.2445C86.8378 19.2445 86.8378 19.2445 86.8378 19.3095C86.8378 19.3745 86.7728 19.3745 86.7728 19.4395L78.4528 44.2695L70.1978 19.6345C70.1978 19.5045 70.1978 19.4395 70.1978 19.3745C70.0028 18.9845 69.6128 18.7245 69.1578 18.7245ZM95.3782 66.6945H113.773C114.293 66.7595 114.748 66.2395 114.748 65.7195C114.748 65.2645 114.293 64.7445 113.773 64.7445H105.583V20.6745H113.773C114.293 20.7395 114.748 20.2195 114.748 19.6995C114.748 19.2445 114.293 18.7245 113.773 18.7245H95.3782C95.3782 18.7245 95.3132 18.7245 95.2482 18.7245C94.7282 18.7245 94.2732 19.1795 94.2732 19.6995C94.2082 20.2195 94.6632 20.6745 95.1832 20.6745C95.2482 20.7395 95.3132 20.7395 95.3782 20.6745H103.633V64.7445H95.3782C94.8582 64.7445 94.4032 65.1995 94.4032 65.7195C94.3382 66.2395 94.7932 66.6945 95.3132 66.6945H95.3782ZM121.274 18.7245C121.209 18.7245 121.209 18.7245 121.209 18.7245C121.079 18.7895 120.949 18.7895 120.819 18.8545C120.819 18.8545 120.819 18.8545 120.819 18.9195C120.754 18.9195 120.689 18.9845 120.689 18.9845C120.624 19.0495 120.624 19.0495 120.624 19.0495C120.559 19.1145 120.559 19.1145 120.559 19.1795C120.494 19.1795 120.494 19.1795 120.494 19.2445L120.429 19.3095C120.429 19.3745 120.429 19.3745 120.429 19.3745C120.429 19.4395 120.429 19.4395 120.429 19.5045C120.364 19.5045 120.364 19.5045 120.364 19.5045C120.364 19.5695 120.364 19.5695 120.364 19.5695V19.6345C120.364 19.6345 120.364 19.6345 120.364 19.6995C120.364 19.7645 120.364 19.7645 120.364 19.7645V65.7195C120.364 66.2395 120.819 66.6945 121.339 66.6945C121.859 66.7595 122.314 66.2395 122.314 65.7195V24.7695L138.759 65.9795C138.824 66.0445 138.824 66.0445 138.824 66.1095C138.824 66.1095 138.824 66.1095 138.889 66.1745V66.2395C138.889 66.3045 138.954 66.3045 138.954 66.3045C138.954 66.3695 138.954 66.3695 138.954 66.3695H139.019V66.4345C139.019 66.4345 139.084 66.4345 139.084 66.4995C139.149 66.4995 139.149 66.4995 139.149 66.4995L139.214 66.5645V66.6295H139.279C139.279 66.6295 139.279 66.6295 139.344 66.6295L139.409 66.6945C139.474 66.6945 139.474 66.6945 139.539 66.6945H139.604H139.734C139.864 66.7595 139.994 66.6945 140.124 66.6295H140.189L140.254 66.5645C140.319 66.5645 140.319 66.5645 140.384 66.4995C140.384 66.4995 140.384 66.4995 140.449 66.4345L140.514 66.3695C140.514 66.3695 140.514 66.3695 140.514 66.3045H140.579C140.579 66.2395 140.579 66.2395 140.579 66.2395C140.579 66.2395 140.579 66.2395 140.579 66.1745C140.644 66.1745 140.644 66.1745 140.644 66.1095L140.709 66.0445V65.9795C140.709 65.9145 140.709 65.9145 140.709 65.8495C140.709 65.7845 140.709 65.7845 140.709 65.7845C140.709 65.7195 140.709 65.7195 140.709 65.6545V19.6995C140.709 19.1795 140.254 18.7245 139.734 18.7245C139.214 18.7245 138.759 19.1795 138.759 19.6995V60.6495L122.314 19.4395C122.249 19.4395 122.249 19.3745 122.249 19.3745V19.3095C122.184 19.2445 122.184 19.1795 122.119 19.1795C122.119 19.0495 122.054 18.9845 121.989 18.9845C121.989 18.9195 121.924 18.9195 121.924 18.9195C121.729 18.7895 121.469 18.7245 121.274 18.7245ZM156.074 18.7245C150.679 19.0495 146.454 23.4045 146.389 28.8645V28.9295V28.9945V56.4895V56.5545V56.6195C146.454 62.2095 150.939 66.6945 156.594 66.6945C162.184 66.6945 166.669 62.2095 166.734 56.6845V56.5545C166.734 56.5545 166.734 56.4895 166.734 56.4245V29.0595V28.9295C166.734 28.9295 166.734 28.8645 166.734 28.7995C166.669 23.2095 162.119 18.7245 156.594 18.7245C156.399 18.7245 156.204 18.7245 156.074 18.7245ZM156.594 20.6745C161.144 20.6745 164.784 24.3145 164.784 28.9295V56.5545C164.784 61.1045 161.144 64.7445 156.594 64.7445C151.979 64.7445 148.404 61.1695 148.339 56.6845C148.339 56.6195 148.339 56.6195 148.339 56.5545V29.0595C148.339 28.9945 148.339 28.9945 148.339 28.9295C148.404 24.3145 151.979 20.6745 156.594 20.6745ZM173.259 18.6595C172.804 18.7245 172.349 19.1795 172.349 19.6345V56.4245V56.4895V56.6195C172.414 62.1445 177.029 66.6945 182.554 66.6945C188.144 66.6945 192.759 62.1445 192.824 56.6195V56.4895V56.4245V19.6345C192.824 19.1795 192.304 18.6595 191.849 18.6595C191.329 18.6595 190.809 19.1795 190.874 19.6345V56.4895C190.809 56.5545 190.809 56.5545 190.874 56.5545C190.809 61.1045 187.104 64.7445 182.554 64.7445C178.069 64.7445 174.299 61.0395 174.299 56.4895C174.364 56.4895 174.364 56.4895 174.299 56.4245V19.6345C174.364 19.1145 173.844 18.6595 173.259 18.6595ZM208.125 18.7245C202.73 18.9845 198.505 23.4045 198.44 28.7995V28.9295V28.9945V38.0295V38.0945V38.2245C198.505 43.7495 202.99 48.2995 208.645 48.2995C209.165 48.2995 209.62 47.7795 209.62 47.3245C209.62 46.8045 209.165 46.2845 208.645 46.3495C204.03 46.3495 200.455 42.7095 200.39 38.2245C200.39 38.2245 200.39 38.1595 200.39 38.0945V28.9295C200.39 28.8645 200.39 28.8645 200.39 28.7995C200.455 24.3145 204.03 20.6745 208.645 20.6745C213.195 20.6745 216.835 24.3795 216.835 28.9295C216.835 29.3845 217.29 29.9045 217.81 29.9045C218.33 29.9045 218.785 29.3845 218.785 28.9295C218.785 23.2745 214.235 18.7245 208.645 18.7245C208.45 18.7245 208.32 18.6595 208.125 18.7245ZM208.45 37.1195C207.995 37.1845 207.54 37.7045 207.605 38.2245C207.605 38.7445 208.125 39.1345 208.645 39.0695C213.195 39.0695 216.835 42.7745 216.835 47.3245V47.3895V56.4245V56.5545C216.835 61.1045 213.195 64.7445 208.645 64.7445C204.03 64.7445 200.39 61.0395 200.39 56.5545C200.39 56.0345 199.935 55.5145 199.415 55.5145C198.895 55.5145 198.44 56.0345 198.44 56.5545C198.44 62.1445 202.99 66.6945 208.645 66.6945C214.235 66.6945 218.72 62.2095 218.785 56.6195V56.5545C218.785 56.4895 218.785 56.4245 218.785 56.3595V47.3895V47.3245V47.1945V47.1295C218.655 41.6045 214.17 37.1195 208.645 37.1195C208.58 37.1195 208.515 37.1195 208.45 37.1195Z" fill="white"/>
</g>
<g filter="url(#filter1_d)">
<path d="M15.063 77.067C14.839 77.095 14.671 77.291 14.671 77.487V97.171C14.615 97.367 14.671 97.563 14.839 97.675C14.867 97.675 14.867 97.675 14.867 97.703C14.895 97.703 14.923 97.703 14.951 97.731C15.007 97.731 15.035 97.731 15.091 97.731C15.119 97.759 15.147 97.731 15.175 97.731H23.043C23.267 97.731 23.463 97.535 23.463 97.311C23.463 97.087 23.267 96.891 23.043 96.891H15.511V77.487C15.511 77.263 15.287 77.039 15.063 77.067ZM25.882 77.683V97.171C25.826 97.395 25.938 97.619 26.134 97.703C26.134 97.703 26.134 97.703 26.134 97.731C26.162 97.731 26.162 97.731 26.162 97.731H26.19C26.218 97.731 26.246 97.759 26.302 97.759C26.33 97.759 26.358 97.759 26.386 97.731H34.254C34.478 97.759 34.674 97.535 34.674 97.311C34.674 97.115 34.478 96.891 34.254 96.891H26.722V89.835H30.278C30.502 89.835 30.698 89.611 30.698 89.415C30.698 89.191 30.502 88.967 30.278 88.995H26.722V77.935H34.254C34.478 77.935 34.674 77.711 34.674 77.515C34.674 77.291 34.478 77.067 34.254 77.095H26.386C26.358 77.067 26.33 77.067 26.274 77.067H26.246C25.966 77.095 25.77 77.431 25.882 77.683ZM37.4569 77.067C37.2049 77.095 36.9809 77.431 37.1209 77.683V97.199C37.0369 97.395 37.1489 97.619 37.3449 97.703V97.731H37.3729C37.3729 97.731 37.3729 97.731 37.4009 97.731C37.4289 97.731 37.4849 97.759 37.5129 97.759C37.5409 97.759 37.5689 97.759 37.5969 97.731H41.5169C41.5169 97.731 41.5169 97.759 41.5449 97.731C43.9249 97.731 45.8569 95.799 45.8849 93.419C45.8849 93.391 45.8849 93.391 45.8849 93.391C45.8849 93.363 45.8849 93.335 45.8849 93.307V81.519C45.8849 81.491 45.8849 81.491 45.8849 81.491V81.463C45.8849 81.435 45.8849 81.407 45.8849 81.407C45.8289 79.027 43.9249 77.095 41.5449 77.095C41.5449 77.067 41.5169 77.067 41.5169 77.095H37.6249C37.5969 77.067 37.5409 77.067 37.5129 77.067H37.4849H37.4569ZM37.9609 77.935H41.5169C43.4769 77.935 45.0449 79.503 45.0449 81.491V93.391C45.0169 95.351 43.4489 96.919 41.5169 96.919H37.9609V77.935ZM18.843 104.067C16.519 104.179 14.699 106.083 14.671 108.407V108.463V108.491V112.383V112.411V112.467C14.699 114.847 16.631 116.807 19.067 116.807C19.291 116.807 19.487 116.583 19.487 116.387C19.487 116.163 19.291 115.939 19.067 115.967C17.079 115.967 15.539 114.399 15.511 112.467C15.511 112.467 15.511 112.439 15.511 112.411V108.463C15.511 108.435 15.511 108.435 15.511 108.407C15.539 106.475 17.079 104.907 19.067 104.907C21.027 104.907 22.595 106.503 22.595 108.463C22.595 108.659 22.791 108.883 23.015 108.883C23.239 108.883 23.435 108.659 23.435 108.463C23.435 106.027 21.475 104.067 19.067 104.067C18.983 104.067 18.927 104.039 18.843 104.067ZM18.983 111.991C18.787 112.019 18.591 112.243 18.619 112.467C18.619 112.691 18.843 112.859 19.067 112.831C21.027 112.831 22.595 114.427 22.595 116.387V116.415V120.307V120.363C22.595 122.323 21.027 123.891 19.067 123.891C17.079 123.891 15.511 122.295 15.511 120.363C15.511 120.139 15.315 119.915 15.091 119.915C14.867 119.915 14.671 120.139 14.671 120.363C14.671 122.771 16.631 124.731 19.067 124.731C21.475 124.731 23.407 122.799 23.435 120.391V120.363C23.435 120.335 23.435 120.307 23.435 120.279V116.415V116.387V116.331V116.303C23.379 113.923 21.447 111.991 19.067 111.991C19.039 111.991 19.011 111.991 18.983 111.991ZM26.274 104.067C26.078 104.095 25.91 104.291 25.91 104.487V116.191C25.854 116.331 25.854 116.471 25.91 116.583V124.311C25.91 124.535 26.106 124.731 26.33 124.731C26.554 124.731 26.75 124.535 26.75 124.311V116.807H33.834V124.311C33.834 124.535 34.03 124.731 34.226 124.731C34.45 124.759 34.674 124.535 34.674 124.311V116.443C34.674 116.387 34.674 116.359 34.674 116.303V104.487C34.674 104.263 34.478 104.067 34.254 104.067C34.03 104.067 33.834 104.263 33.834 104.487V115.967H26.75V104.487C26.75 104.263 26.526 104.039 26.274 104.067ZM41.2649 104.067C38.9409 104.207 37.1209 106.083 37.0929 108.435V108.463V108.491V120.335V120.363V120.391C37.1209 122.799 39.0529 124.731 41.4889 124.731C43.8969 124.731 45.8289 122.799 45.8569 120.419V120.363C45.8569 120.363 45.8569 120.335 45.8569 120.307V108.519V108.463C45.8569 108.463 45.8569 108.435 45.8569 108.407C45.8289 105.999 43.8689 104.067 41.4889 104.067C41.4049 104.067 41.3209 104.067 41.2649 104.067ZM41.4889 104.907C43.4489 104.907 45.0169 106.475 45.0169 108.463V120.363C45.0169 122.323 43.4489 123.891 41.4889 123.891C39.5009 123.891 37.9609 122.351 37.9329 120.419C37.9329 120.391 37.9329 120.391 37.9329 120.363V108.519C37.9329 108.491 37.9329 108.491 37.9329 108.463C37.9609 106.475 39.5009 104.907 41.4889 104.907ZM48.6679 104.095C48.4719 104.123 48.3039 104.319 48.3039 104.515V124.339V124.367V124.395V124.423V124.451C48.3039 124.479 48.3039 124.479 48.3039 124.479C48.3039 124.507 48.3319 124.507 48.3319 124.507C48.3319 124.535 48.3319 124.535 48.3319 124.563C48.3599 124.563 48.3599 124.591 48.3599 124.591C48.3599 124.619 48.3879 124.619 48.3879 124.619C48.3879 124.619 48.3879 124.619 48.3879 124.647C48.3879 124.647 48.3879 124.647 48.4159 124.647V124.675C48.4159 124.675 48.4159 124.675 48.4439 124.675V124.703H48.4719C48.4719 124.731 48.4999 124.731 48.5279 124.731C48.5279 124.759 48.5279 124.759 48.5279 124.759C48.5559 124.759 48.5559 124.759 48.5559 124.759C48.5559 124.759 48.5559 124.759 48.5839 124.759L48.6119 124.787C48.6399 124.787 48.6399 124.787 48.6679 124.787H48.6959H48.7239C48.7799 124.787 48.8639 124.787 48.9199 124.731C48.9479 124.731 48.9479 124.731 48.9759 124.703C49.0039 124.675 49.0319 124.675 49.0319 124.647C49.0599 124.619 49.0599 124.619 49.0599 124.619C49.0879 124.591 49.0879 124.591 49.0879 124.563L49.1159 124.535C49.1159 124.507 49.1159 124.479 49.1439 124.451L52.6719 113.783L56.2279 124.507C56.2559 124.507 56.2559 124.507 56.2559 124.507C56.2559 124.535 56.2559 124.563 56.2839 124.563C56.2839 124.591 56.3119 124.647 56.3399 124.647C56.3399 124.675 56.3399 124.675 56.3399 124.675C56.3679 124.675 56.3679 124.675 56.3679 124.703H56.3959C56.4239 124.731 56.4799 124.759 56.5079 124.787H56.5359C56.5359 124.787 56.5359 124.787 56.5639 124.787H56.5919H56.6199H56.6479C56.7039 124.787 56.7319 124.787 56.7599 124.787C56.7879 124.787 56.8159 124.759 56.8159 124.759C56.8439 124.759 56.8439 124.759 56.8439 124.731H56.8719C56.8999 124.731 56.8999 124.731 56.8999 124.731C56.9279 124.703 56.9559 124.675 56.9839 124.647C57.0119 124.619 57.0119 124.563 57.0399 124.535C57.0399 124.507 57.0399 124.507 57.0399 124.507C57.0679 124.423 57.0679 124.367 57.0679 124.311V104.515C57.0679 104.291 56.8719 104.095 56.6479 104.095C56.4239 104.095 56.2279 104.291 56.2279 104.515V121.763L53.0919 112.411C53.0919 112.299 53.0359 112.215 52.9799 112.159C52.9519 112.131 52.8959 112.075 52.8399 112.075C52.8399 112.047 52.8119 112.047 52.8119 112.047C52.8119 112.047 52.8119 112.047 52.7839 112.047C52.7839 112.047 52.7839 112.047 52.7559 112.047C52.7279 112.019 52.6999 112.019 52.6719 112.019C52.6159 112.019 52.5879 112.019 52.5319 112.047H52.5039C52.3639 112.103 52.2519 112.271 52.2519 112.411V112.439L49.1439 121.763V104.515C49.1439 104.291 48.9199 104.067 48.6679 104.095Z" fill="url(#paint0_linear)"/>
</g>
<g filter="url(#filter2_d)">
<path d="M9.01199 12.0087L9.01216 11.5087L8.51206 11.5088L8.51199 12.0088L9.01199 12.0087ZM19.632 12.0079L19.6319 12.5079L19.6319 12.5079L19.632 12.0079ZM30.5947 12.3606C30.79 12.1653 30.7901 11.8487 30.5949 11.6535L27.414 8.47174C27.2188 8.27649 26.9022 8.27652 26.7069 8.4718C26.5116 8.66707 26.5115 8.98366 26.7067 9.1789L29.5342 12.0071L26.7048 14.8358C26.5095 15.031 26.5094 15.3476 26.7046 15.5429C26.8998 15.7381 27.2163 15.7381 27.4117 15.5428L30.5947 12.3606ZM9.5097 28.1722L9.51199 12.0086L8.51199 12.0088L8.5097 28.1725L9.5097 28.1722ZM9.01182 12.5087L19.6319 12.5079L19.6322 11.5079L9.01216 11.5087L9.01182 12.5087ZM19.6319 12.5079L30.2411 12.5071L30.2414 11.5071L19.6322 11.5079L19.6319 12.5079Z" fill="white"/>
</g>
<g filter="url(#filter3_d)">
<path d="M75.1786 76.9787C74.7236 77.0437 74.3336 77.4987 74.3336 77.9537V123.974V124.039V124.104V124.169V124.234C74.3336 124.299 74.3336 124.299 74.3336 124.299C74.3336 124.364 74.3986 124.364 74.3986 124.364C74.3986 124.429 74.3986 124.429 74.3986 124.494C74.4636 124.494 74.4636 124.559 74.4636 124.559C74.4636 124.624 74.5286 124.624 74.5286 124.624C74.5286 124.624 74.5286 124.624 74.5286 124.689C74.5286 124.689 74.5286 124.689 74.5936 124.689V124.754C74.5936 124.754 74.5936 124.754 74.6586 124.754V124.819H74.7236C74.7236 124.884 74.7886 124.884 74.8536 124.884C74.8536 124.949 74.8536 124.949 74.8536 124.949C74.9186 124.949 74.9186 124.949 74.9186 124.949C74.9186 124.949 74.9186 124.949 74.9836 124.949L75.0486 125.014C75.1136 125.014 75.1136 125.014 75.1786 125.014H75.2436H75.3086C75.4386 125.014 75.6336 125.014 75.7636 124.884C75.8286 124.884 75.8286 124.884 75.8936 124.819C75.9586 124.754 76.0236 124.754 76.0236 124.689C76.0886 124.624 76.0886 124.624 76.0886 124.624C76.1536 124.559 76.1536 124.559 76.1536 124.494L76.2186 124.429C76.2186 124.364 76.2186 124.299 76.2836 124.234L84.4736 99.4687L92.7286 124.364C92.7936 124.364 92.7936 124.364 92.7936 124.364C92.7936 124.429 92.7936 124.494 92.8586 124.494C92.8586 124.559 92.9236 124.689 92.9886 124.689C92.9886 124.754 92.9886 124.754 92.9886 124.754C93.0536 124.754 93.0536 124.754 93.0536 124.819H93.1186C93.1836 124.884 93.3136 124.949 93.3786 125.014H93.4436C93.4436 125.014 93.4436 125.014 93.5086 125.014H93.5736H93.6386H93.7036C93.8336 125.014 93.8986 125.014 93.9636 125.014C94.0286 125.014 94.0936 124.949 94.0936 124.949C94.1586 124.949 94.1586 124.949 94.1586 124.884H94.2236C94.2886 124.884 94.2886 124.884 94.2886 124.884C94.3536 124.819 94.4186 124.754 94.4836 124.689C94.5486 124.624 94.5486 124.494 94.6136 124.429C94.6136 124.364 94.6136 124.364 94.6136 124.364C94.6786 124.169 94.6786 124.039 94.6786 123.909V77.9537C94.6786 77.4337 94.2236 76.9787 93.7036 76.9787C93.1836 76.9787 92.7286 77.4337 92.7286 77.9537V117.994L85.4486 96.2837C85.4486 96.0237 85.3186 95.8287 85.1886 95.6987C85.1236 95.6337 84.9936 95.5037 84.8636 95.5037C84.8636 95.4387 84.7986 95.4387 84.7986 95.4387C84.7986 95.4387 84.7986 95.4387 84.7336 95.4387C84.7336 95.4387 84.7336 95.4387 84.6686 95.4387C84.6036 95.3737 84.5386 95.3737 84.4736 95.3737C84.3436 95.3737 84.2786 95.3737 84.1486 95.4387H84.0836C83.7586 95.5687 83.4986 95.9587 83.4986 96.2837V96.3487L76.2836 117.994V77.9537C76.2836 77.4337 75.7636 76.9137 75.1786 76.9787ZM101.399 124.884H119.794C120.314 124.949 120.769 124.429 120.769 123.909C120.769 123.454 120.314 122.934 119.794 122.934H111.604V78.8637H119.794C120.314 78.9287 120.769 78.4087 120.769 77.8887C120.769 77.4337 120.314 76.9137 119.794 76.9137H101.399C101.399 76.9137 101.334 76.9137 101.269 76.9137C100.749 76.9137 100.294 77.3687 100.294 77.8887C100.229 78.4087 100.684 78.8637 101.204 78.8637C101.269 78.9287 101.334 78.9287 101.399 78.8637H109.654V122.934H101.399C100.879 122.934 100.424 123.389 100.424 123.909C100.359 124.429 100.814 124.884 101.334 124.884H101.399ZM145.754 76.7837C145.689 76.7837 145.559 76.8487 145.494 76.8487H127.424C126.904 76.7837 126.384 77.2387 126.319 77.7587C126.254 78.2787 126.709 78.7987 127.229 78.7987C127.294 78.7987 127.359 78.7987 127.424 78.7987H144.389L126.579 123.324C126.319 123.714 126.319 124.299 126.709 124.624C126.774 124.689 126.839 124.754 126.969 124.819C126.969 124.819 126.969 124.819 127.034 124.819C127.099 124.884 127.229 124.884 127.294 124.884C127.424 124.949 127.489 124.949 127.619 124.884H145.819C146.339 124.884 146.794 124.429 146.794 123.909C146.794 123.389 146.339 122.934 145.819 122.934H128.854L146.664 78.3437C146.664 78.2787 146.729 78.2137 146.729 78.2137C147.054 77.5637 146.469 76.7187 145.754 76.7837ZM172.82 123.909V87.2487C172.82 87.1837 172.82 87.1837 172.82 87.1187V87.0537C172.82 87.0537 172.82 86.9887 172.82 86.9237C172.755 81.3987 168.205 76.9787 162.68 76.9137H162.615C162.42 76.9137 162.29 76.9137 162.095 76.9137C156.765 77.1737 152.475 81.5937 152.41 86.9887V87.0537V87.1187V87.1837V123.909C152.41 124.429 152.865 124.884 153.385 124.884C153.905 124.949 154.36 124.429 154.36 123.909V106.489H170.87V123.909C170.87 124.429 171.325 124.884 171.845 124.884C172.365 124.949 172.82 124.429 172.82 123.909ZM162.615 78.8637C167.165 78.8637 170.87 82.5037 170.87 87.1187V87.1837V104.539H154.36V87.2487C154.36 87.1837 154.36 87.1837 154.36 87.1187V87.0537C154.425 82.5037 158.13 78.8637 162.615 78.8637ZM179.345 76.8487C178.825 76.9137 178.435 77.3687 178.435 77.8237V87.0537C178.435 87.1187 178.435 87.1187 178.435 87.1187V96.2187V96.2837V123.909C178.435 124.429 178.825 124.884 179.28 124.884C179.865 124.949 180.385 124.494 180.385 123.909V102.264C182.205 104.799 185.195 106.424 188.575 106.424C189.355 106.424 190.135 106.359 190.85 106.164L196.895 124.234C196.96 124.559 197.35 124.884 197.74 124.884C198.39 124.949 198.91 124.234 198.715 123.584L192.67 105.579C196.245 104.019 198.715 100.509 198.78 96.4137V96.2837C198.78 96.2187 198.78 96.2187 198.78 96.1537V87.1837V87.0537V86.9887C198.78 86.9887 198.78 86.9237 198.78 86.8587C198.715 81.3987 194.165 76.8487 188.575 76.8487C185.195 76.8487 182.205 78.5387 180.385 81.0737V77.8237C180.385 77.3037 179.865 76.7837 179.345 76.8487ZM188.575 78.7987C193.19 78.7987 196.83 82.5037 196.83 87.0537C196.83 87.1187 196.83 87.1187 196.83 87.1187V96.2837C196.83 96.3487 196.83 96.3487 196.83 96.3487C196.83 99.6637 194.88 102.394 192.085 103.694L189.485 95.9587C189.355 95.5037 188.77 95.1787 188.25 95.3087C187.73 95.5037 187.47 96.0887 187.665 96.6087L190.2 104.344C189.68 104.409 189.16 104.474 188.575 104.474C184.025 104.474 180.385 100.834 180.385 96.2837V96.2187V87.0537C180.385 82.5037 184.025 78.7987 188.575 78.7987ZM205.306 76.9137C204.721 76.9787 204.201 77.7587 204.526 78.3437V123.649C204.331 124.104 204.591 124.624 205.046 124.819V124.884H205.111C205.111 124.884 205.111 124.884 205.176 124.884C205.241 124.884 205.371 124.949 205.436 124.949C205.501 124.949 205.566 124.949 205.631 124.884H214.731C214.731 124.884 214.731 124.949 214.796 124.884C220.321 124.884 224.806 120.399 224.871 114.874C224.871 114.809 224.871 114.809 224.871 114.809C224.871 114.744 224.871 114.679 224.871 114.614V87.2487C224.871 87.1837 224.871 87.1837 224.871 87.1837V87.1187C224.871 87.0537 224.871 86.9887 224.871 86.9887C224.741 81.4637 220.321 76.9787 214.796 76.9787C214.796 76.9137 214.731 76.9137 214.731 76.9787H205.696C205.631 76.9137 205.501 76.9137 205.436 76.9137H205.371H205.306ZM206.476 78.9287H214.731C219.281 78.9287 222.921 82.5687 222.921 87.1837V114.809C222.856 119.359 219.216 122.999 214.731 122.999H206.476V78.9287ZM240.171 76.9137C234.776 77.1737 230.551 81.5937 230.486 86.9887V87.1187V87.1837V96.2187V96.2837V96.4137C230.551 101.939 235.036 106.489 240.691 106.489C241.211 106.489 241.666 105.969 241.666 105.514C241.666 104.994 241.211 104.474 240.691 104.539C236.076 104.539 232.501 100.899 232.436 96.4137C232.436 96.4137 232.436 96.3487 232.436 96.2837V87.1187C232.436 87.0537 232.436 87.0537 232.436 86.9887C232.501 82.5037 236.076 78.8637 240.691 78.8637C245.241 78.8637 248.881 82.5687 248.881 87.1187C248.881 87.5737 249.336 88.0937 249.856 88.0937C250.376 88.0937 250.831 87.5737 250.831 87.1187C250.831 81.4637 246.281 76.9137 240.691 76.9137C240.496 76.9137 240.366 76.8487 240.171 76.9137ZM240.496 95.3087C240.041 95.3737 239.586 95.8937 239.651 96.4137C239.651 96.9337 240.171 97.3237 240.691 97.2587C245.241 97.2587 248.881 100.964 248.881 105.514V105.579V114.614V114.744C248.881 119.294 245.241 122.934 240.691 122.934C236.076 122.934 232.436 119.229 232.436 114.744C232.436 114.224 231.981 113.704 231.461 113.704C230.941 113.704 230.486 114.224 230.486 114.744C230.486 120.334 235.036 124.884 240.691 124.884C246.281 124.884 250.766 120.399 250.831 114.809V114.744C250.831 114.679 250.831 114.614 250.831 114.549V105.579V105.514V105.384V105.319C250.701 99.7937 246.216 95.3087 240.691 95.3087C240.626 95.3087 240.561 95.3087 240.496 95.3087Z" fill="white"/>
</g>
<g filter="url(#filter4_d)">
<path d="M257.229 133.238L257.227 133.738L257.727 133.74L257.729 133.24L257.229 133.238ZM246.609 133.205L246.612 132.705L246.612 132.705L246.609 133.205ZM235.648 132.818C235.452 133.012 235.45 133.329 235.645 133.525L238.812 136.716C239.006 136.912 239.323 136.913 239.519 136.719C239.715 136.524 239.716 136.207 239.522 136.012L236.707 133.174L239.549 130.355C239.745 130.16 239.747 129.844 239.552 129.648C239.358 129.452 239.041 129.451 238.845 129.646L235.648 132.818ZM256.803 117.073L256.729 133.237L257.729 133.24L257.803 117.076L256.803 117.073ZM257.231 132.738L246.612 132.705L246.607 133.705L257.227 133.738L257.231 132.738ZM246.612 132.705L236.002 132.672L235.998 133.672L246.607 133.705L246.612 132.705Z" fill="white"/>
</g>
<defs>
<filter id="filter0_d" x="8.21329" y="10.6595" width="218.571" height="64.0639" filterUnits="userSpaceOnUse" color-interpolation-filters="sRGB">
<feFlood flood-opacity="0" result="BackgroundImageFix"/>
<feColorMatrix in="SourceAlpha" type="matrix" values="0 0 0 0 0 0 0 0 0 0 0 0 0 0 0 0 0 0 127 0"/>
<feOffset/>
<feGaussianBlur stdDeviation="4"/>
<feColorMatrix type="matrix" values="0 0 0 0 1 0 0 0 0 0.977833 0 0 0 0 0.445833 0 0 0 1 0"/>
<feBlend mode="normal" in2="BackgroundImageFix" result="effect1_dropShadow"/>
<feBlend mode="normal" in="SourceGraphic" in2="effect1_dropShadow" result="shape"/>
</filter>
<filter id="filter1_d" x="7.65004" y="70.0646" width="56.4178" height="61.7224" filterUnits="userSpaceOnUse" color-interpolation-filters="sRGB">
<feFlood flood-opacity="0" result="BackgroundImageFix"/>
<feColorMatrix in="SourceAlpha" type="matrix" values="0 0 0 0 0 0 0 0 0 0 0 0 0 0 0 0 0 0 127 0"/>
<feOffset/>
<feGaussianBlur stdDeviation="3.5"/>
<feColorMatrix type="matrix" values="0 0 0 0 0.799015 0 0 0 0 0.574167 0 0 0 0 0.883333 0 0 0 1 0"/>
<feBlend mode="normal" in2="BackgroundImageFix" result="effect1_dropShadow"/>
<feBlend mode="normal" in="SourceGraphic" in2="effect1_dropShadow" result="shape"/>
</filter>
<filter id="filter2_d" x="0.509689" y="0.325317" width="38.2316" height="35.8471" filterUnits="userSpaceOnUse" color-interpolation-filters="sRGB">
<feFlood flood-opacity="0" result="BackgroundImageFix"/>
<feColorMatrix in="SourceAlpha" type="matrix" values="0 0 0 0 0 0 0 0 0 0 0 0 0 0 0 0 0 0 127 0"/>
<feOffset/>
<feGaussianBlur stdDeviation="4"/>
<feColorMatrix type="matrix" values="0 0 0 0 1 0 0 0 0 0.977833 0 0 0 0 0.445833 0 0 0 1 0"/>
<feBlend mode="normal" in2="BackgroundImageFix" result="effect1_dropShadow"/>
<feBlend mode="normal" in="SourceGraphic" in2="effect1_dropShadow" result="shape"/>
</filter>
<filter id="filter3_d" x="66.3336" y="68.7802" width="192.497" height="64.2335" filterUnits="userSpaceOnUse" color-interpolation-filters="sRGB">
<feFlood flood-opacity="0" result="BackgroundImageFix"/>
<feColorMatrix in="SourceAlpha" type="matrix" values="0 0 0 0 0 0 0 0 0 0 0 0 0 0 0 0 0 0 127 0"/>
<feOffset/>
<feGaussianBlur stdDeviation="4"/>
<feColorMatrix type="matrix" values="0 0 0 0 1 0 0 0 0 0.977833 0 0 0 0 0.445833 0 0 0 1 0"/>
<feBlend mode="normal" in2="BackgroundImageFix" result="effect1_dropShadow"/>
<feBlend mode="normal" in="SourceGraphic" in2="effect1_dropShadow" result="shape"/>
</filter>
<filter id="filter4_d" x="227.5" y="109.073" width="38.3028" height="35.7906" filterUnits="userSpaceOnUse" color-interpolation-filters="sRGB">
<feFlood flood-opacity="0" result="BackgroundImageFix"/>
<feColorMatrix in="SourceAlpha" type="matrix" values="0 0 0 0 0 0 0 0 0 0 0 0 0 0 0 0 0 0 127 0"/>
<feOffset/>
<feGaussianBlur stdDeviation="4"/>
<feColorMatrix type="matrix" values="0 0 0 0 1 0 0 0 0 0.977833 0 0 0 0 0.445833 0 0 0 1 0"/>
<feBlend mode="normal" in2="BackgroundImageFix" result="effect1_dropShadow"/>
<feBlend mode="normal" in="SourceGraphic" in2="effect1_dropShadow" result="shape"/>
</filter>
<linearGradient id="paint0_linear" x1="39.7109" y1="75.731" x2="39.7109" y2="120.066" gradientUnits="userSpaceOnUse">
<stop offset="0.114583" stop-color="#9B51E0"/>
<stop offset="0.307292" stop-color="#2F80ED"/>
<stop offset="0.682292" stop-color="#EB5757"/>
<stop offset="1" stop-color="#F2C94C"/>
</linearGradient>
</defs>
</svg>
