<svg width="25" height="25" viewBox="0 0 25 25" fill="none" xmlns="http://www.w3.org/2000/svg">
<g clip-path="url(#clip0)">
<path d="M17.9685 25C17.1615 25 16.3613 24.8573 15.5789 24.5731C12.1318 23.3209 8.93227 21.2814 6.32593 18.6751C3.71959 16.0688 1.68013 12.8692 0.427982 9.42217C0.0256063 8.31441 -0.0931388 7.1709 0.0751648 6.02329C0.232824 4.94833 0.649214 3.90477 1.27936 3.00539C1.9123 2.10206 2.75611 1.35073 3.71955 0.832632C4.74695 0.280164 5.86834 0 7.05266 0C7.42101 0 7.73935 0.257363 7.81655 0.617504L9.04277 6.33988C9.09828 6.599 9.01865 6.86862 8.8313 7.05601L6.73602 9.15124C8.7126 13.0811 11.9199 16.2883 15.8497 18.2649L17.9449 16.1696C18.1323 15.9823 18.402 15.9028 18.6611 15.9582L24.3834 17.1844C24.7436 17.2616 25.0009 17.5799 25.0009 17.9483C25.0009 19.1326 24.7208 20.2541 24.1683 21.2815C23.6502 22.2449 22.8988 23.0887 21.9955 23.7216C21.0962 24.3518 20.0526 24.7682 18.9776 24.9258C18.6408 24.9753 18.304 25 17.9685 25ZM6.42847 1.59661C4.86628 1.76907 3.47971 2.58788 2.55895 3.90204C1.52354 5.37976 1.2821 7.19731 1.89653 8.88875C4.30385 15.5157 9.48532 20.6972 16.1123 23.1045C17.8037 23.719 19.6213 23.4776 21.099 22.4421C22.4132 21.5213 23.232 20.1348 23.4044 18.5726L18.7493 17.5751L16.5611 19.7633C16.3283 19.9961 15.9745 20.058 15.6765 19.9179C11.0288 17.7344 7.26662 13.9723 5.08311 9.32452C4.94313 9.02653 5.00494 8.67274 5.23779 8.43994L7.42599 6.25175L6.42847 1.59661Z" fill="white"/>
<path d="M24.2186 13.2807C23.7871 13.2807 23.4373 12.9309 23.4373 12.4995C23.4373 6.46878 18.531 1.56244 12.5003 1.56244C12.0688 1.56244 11.7191 1.21265 11.7191 0.781218C11.7191 0.34979 12.0688 0 12.5003 0C15.8391 0 18.9779 1.30014 21.3388 3.66098C23.6996 6.02182 24.9998 9.16071 24.9998 12.4995C24.9998 12.9309 24.65 13.2807 24.2186 13.2807Z" fill="white"/>
<path d="M21.0937 13.2806C20.6623 13.2806 20.3125 12.9308 20.3125 12.4994C20.3125 8.19174 16.8079 4.68719 12.5003 4.68719C12.0688 4.68719 11.7191 4.3374 11.7191 3.90597C11.7191 3.47455 12.0688 3.12476 12.5003 3.12476C17.6695 3.12476 21.8749 7.3302 21.8749 12.4994C21.8749 12.9308 21.5252 13.2806 21.0937 13.2806Z" fill="white"/>
<path d="M17.9688 13.2807C17.5374 13.2807 17.1876 12.9309 17.1876 12.4995C17.1876 9.91489 15.0849 7.81219 12.5003 7.81219C12.0688 7.81219 11.7191 7.4624 11.7191 7.03097C11.7191 6.59955 12.0688 6.24976 12.5003 6.24976C15.9464 6.24976 18.75 9.05335 18.75 12.4995C18.75 12.9309 18.4003 13.2807 17.9688 13.2807Z" fill="white"/>
</g>
<defs>
<clipPath id="clip0">
<rect width="25" height="25" fill="white"/>
</clipPath>
</defs>
</svg>
